<svg xmlns="http://www.w3.org/2000/svg" viewBox="0 0 64 64" width="64" height="64" id="icon-r7qgubfek">
  <g xmlns="http://www.w3.org/2000/svg" fill="none">
    <path d="M18 28 h28 a2 2 0 0 1 2 2 v3              a3 3 0 0 0 -3 3 3 3 0 0 0 3 3 v3              a2 2 0 0 1 -2 2 h-28              a2 2 0 0 1 -2 -2 v-3              a3 3 0 0 0 3 -3 3 3 0 0 0 -3 -3 v-3              a2 2 0 0 1 2 -2 z" fill="#f97316"/>
    <!-- fake barcode -->
    <rect x="38" y="30" width="6" height="12" fill="#0f172a" opacity="0.7"/>
    <rect x="39" y="31" width="1" height="10" fill="#e5e7eb"/>
    <rect x="41" y="31" width="1" height="10" fill="#e5e7eb" opacity="0.8"/>
    <!-- star -->
    <path d="M26 34 L27 36 L29 36.2 L27.6 37.5 L28 39.5 L26 38.6 L24 39.5 L24.4 37.5 23 36.2 25 36z" fill="#facc15"/>
  </g>
</svg>