<svg xmlns="http://www.w3.org/2000/svg" viewBox="0 0 64 64" width="64" height="64" id="icon-ol255dt6v">
  <g xmlns="http://www.w3.org/2000/svg" fill="none">
    <!-- ground ring -->
    <ellipse cx="32" cy="44" rx="16" ry="5.5" fill="#020617"/>
    <!-- stones -->
    <circle cx="22" cy="42" r="2" fill="#4b5563"/>
    <circle cx="27" cy="40" r="2" fill="#6b7280"/>
    <circle cx="37" cy="40" r="2" fill="#4b5563"/>
    <circle cx="42" cy="42" r="2" fill="#6b7280"/>
    <!-- fire -->
    <path d="M32 34 C28 37 28 41 30 44s2 3 2.5 4c0.8-1.2 1.7-2.2 3-4s2-5 0-8-4-3-4-3z" fill="#f97316"/>
    <path d="M32 36 C30.5 38 30.5 40 31 41.5s1.2 2.2 1.6 2.9c0.7-0.9 1.3-1.6 1.7-2.9s0.3-2.7-0.6-4-2.1-1.5-2.7-1.5z" fill="#facc15"/>
  </g>
</svg>