<svg xmlns="http://www.w3.org/2000/svg" viewBox="0 0 64 64" data-pack="errl_accessory" data-cat="wearable" data-name="errl_accessory_mittens_wintercozy">
  <rect width="64" height="64" rx="12" fill="none"/>
  <path d="M20 24c-4 0-8 4-8 10s4 12 8 12 8-6 8-12-4-10-8-10z" fill="#0d2330" stroke="#8ed8ff" stroke-width="2" stroke-linejoin="round"/>
  <path d="M44 24c-4 0-8 4-8 10s4 12 8 12 8-6 8-12-4-10-8-10z" fill="#0d2330" stroke="#8ed8ff" stroke-width="2" stroke-linejoin="round"/>
  <path d="M12 34h12M36 34h12" stroke="#ff8db9" stroke-width="2" stroke-linecap="round"/>
  <path d="M24 32c2-4 4-6 8-6s6 2 8 6" fill="none" stroke="#8ed8ff" stroke-width="2" stroke-linecap="round"/>
</svg>
