<svg xmlns="http://www.w3.org/2000/svg" viewBox="0 0 1024 1024">
  <g id="pirate-hat" fill="none" stroke="#0e0b1e" stroke-width="14" stroke-linejoin="round">
    <path fill="#0b0b12" d="M 160 530 C 220 420 330 340 512 340 C 694 340 804 420 864 530 C 796 510 742 506 662 508 C 580 510 444 520 330 524 C 246 528 200 528 160 530 Z"/>
    <path fill="#f4d95c" d="M 210 558 C 310 576 460 584 606 576 C 734 570 836 552 870 540 C 848 610 746 662 618 676 C 446 694 296 644 210 558 Z"/>
    <path fill="#f4d95c" d="M 496 430 C 486 456 488 492 498 520 C 512 496 526 466 534 440 C 538 428 536 416 528 410 C 520 404 504 408 496 430 Z"/>
    <path fill="#ffffff" d="M 488 482 C 482 500 486 520 498 528 C 510 536 524 526 530 512 C 538 494 534 474 522 466 C 508 458 494 462 488 482 Z"/>
  </g>
</svg>
