<svg xmlns="http://www.w3.org/2000/svg" width="1024" height="1024" viewBox="0 0 1024 1024">
  <g id="group_cabinet" fill="#ffd166" stroke="#101020" stroke-width="14" stroke-linecap="round" stroke-linejoin="round">
    <rect x="240" y="260" width="544" height="420" rx="42" />
    <rect x="280" y="300" width="464" height="340" rx="28" fill="#f4f0ff" />
  </g>
  <g id="group_screen_mask" fill="#101020">
    <rect x="300" y="320" width="360" height="300" rx="18" />
  </g>
  <g id="group_glass_reflection" fill="#5be0ff" opacity="0.14">
    <path d="M320 330h120l-90 280h-60z" />
  </g>
  <g id="group_knobs" fill="#101020">
    <circle cx="700" cy="360" r="18" />
    <circle cx="740" cy="360" r="18" />
    <rect x="700" y="420" width="60" height="12" rx="6" />
  </g>
  <g id="group_speaker_grill" fill="#101020" opacity="0.7">
    <rect x="680" y="470" width="80" height="140" rx="12" />
    <g fill="#f4f0ff" opacity="0.4">
      <rect x="696" y="486" width="48" height="10" rx="5" />
      <rect x="696" y="510" width="48" height="10" rx="5" />
      <rect x="696" y="534" width="48" height="10" rx="5" />
      <rect x="696" y="558" width="48" height="10" rx="5" />
      <rect x="696" y="582" width="48" height="10" rx="5" />
    </g>
  </g>
</svg>
