<svg xmlns="http://www.w3.org/2000/svg" width="1024" height="1024" viewBox="0 0 1024 1024">
  <g id="group_fill" fill="#ffd166">
    <path d="M160 150c120-58 584-58 704 0 80 40 62 140-48 170-54 14-160 12-188 40-28 26-32 92-32 134 0 40-26 66-54 66s-54-26-54-66c0-42-4-108-32-134-28-28-134-26-188-40-110-30-128-130-48-170z" />
  </g>
  <g id="group_outline" fill="none" stroke="#101020" stroke-width="12" stroke-linecap="round" stroke-linejoin="round">
    <path d="M160 150c120-58 584-58 704 0 80 40 62 140-48 170-54 14-160 12-188 40-28 26-32 92-32 134 0 40-26 66-54 66s-54-26-54-66c0-42-4-108-32-134-28-28-134-26-188-40-110-30-128-130-48-170z" />
  </g>
</svg>
