<svg xmlns="http://www.w3.org/2000/svg" width="1024" height="1024" viewBox="0 0 1024 1024">
  <g id="group_fill" fill="#ffd166">
    <path d="M280 120c-52 42-48 158 0 216 36 44 90 44 132 6 32-30 48-92 44-140-4-36-30-62-66-68-26-4-36-24-38-44-2-20-28-28-48-12z" />
    <path d="M366 330c-18 70-10 180 16 230 16 34 52 34 68 0 24-50 36-150 18-222-10-42-72-56-102-8z" />
  </g>
  <g id="group_outline" fill="none" stroke="#101020" stroke-width="12" stroke-linecap="round" stroke-linejoin="round">
    <path d="M280 120c-52 42-48 158 0 216 36 44 90 44 132 6 32-30 48-92 44-140-4-36-30-62-66-68-26-4-36-24-38-44-2-20-28-28-48-12z" />
    <path d="M366 330c-18 70-10 180 16 230 16 34 52 34 68 0 24-50 36-150 18-222-10-42-72-56-102-8z" />
  </g>
</svg>
