<svg xmlns="http://www.w3.org/2000/svg" width="1024" height="1024" viewBox="0 0 1024 1024">
  <g id="group_shadow" opacity="0.14">
    <ellipse cx="520" cy="700" rx="260" ry="60" fill="#101020" />
  </g>
  <g id="group_fill" fill="#ffd166">
    <path d="M264 512c-40-60 12-126 88-130 38-2 76-16 100-40 54-52 154-52 210 0 20 18 54 28 84 30 92 6 138 110 68 172-18 16-28 46-22 70 16 64-38 120-102 110-24-4-50 6-74 18-78 40-172 6-204-74-10-26-28-46-52-56-78-30-116-96-96-154z" />
  </g>
  <g id="group_inner_highlights" fill="#ffffff" opacity="0.6">
    <path d="M410 454c-18 24-12 52 20 64 32 14 70 8 96-12 22-16 18-48-12-62-36-16-82-12-104 10z" />
    <ellipse cx="640" cy="520" rx="64" ry="26" />
  </g>
  <g id="group_outline" fill="none" stroke="#101020" stroke-width="12" stroke-linecap="round" stroke-linejoin="round">
    <path d="M264 512c-40-60 12-126 88-130 38-2 76-16 100-40 54-52 154-52 210 0 20 18 54 28 84 30 92 6 138 110 68 172-18 16-28 46-22 70 16 64-38 120-102 110-24-4-50 6-74 18-78 40-172 6-204-74-10-26-28-46-52-56-78-30-116-96-96-154z" />
  </g>
</svg>
