<svg xmlns="http://www.w3.org/2000/svg" width="1024" height="1024" viewBox="0 0 1024 1024">
  <g id="group_cabinet" fill="#ffd166" stroke="#101020" stroke-width="14" stroke-linecap="round" stroke-linejoin="round">
    <rect x="240" y="260" width="544" height="420" rx="80" />
    <rect x="280" y="300" width="464" height="340" rx="60" fill="#f4f0ff" />
  </g>
  <g id="group_screen_mask" fill="#101020">
    <rect x="310" y="330" width="340" height="280" rx="34" />
  </g>
  <g id="group_glass_reflection" fill="#5be0ff" opacity="0.14">
    <path d="M330 340h120l-90 270h-70z" />
  </g>
  <g id="group_knobs" fill="#101020">
    <circle cx="700" cy="380" r="18" />
    <circle cx="740" cy="380" r="18" />
    <rect x="700" y="440" width="60" height="12" rx="6" />
  </g>
  <g id="group_speaker_grill" fill="#101020" opacity="0.7">
    <rect x="684" y="480" width="96" height="140" rx="24" />
    <g fill="#f4f0ff" opacity="0.4">
      <rect x="704" y="500" width="56" height="10" rx="5" />
      <rect x="704" y="524" width="56" height="10" rx="5" />
      <rect x="704" y="548" width="56" height="10" rx="5" />
      <rect x="704" y="572" width="56" height="10" rx="5" />
      <rect x="704" y="596" width="56" height="10" rx="5" />
    </g>
  </g>
</svg>
