<svg xmlns="http://www.w3.org/2000/svg" width="1024" height="1024" viewBox="0 0 1024 1024">
  <g id="group_fill" fill="#ffd166">
    <path d="M332 180c56-46 304-46 360 0 40 32 30 98-26 120-28 12-88 8-104 26-16 16-18 54-18 82 0 28-20 44-44 44s-44-16-44-44c0-28-2-66-18-82-16-18-76-14-104-26-56-22-66-88-26-120z" />
  </g>
  <g id="group_outline" fill="none" stroke="#101020" stroke-width="12" stroke-linecap="round" stroke-linejoin="round">
    <path d="M332 180c56-46 304-46 360 0 40 32 30 98-26 120-28 12-88 8-104 26-16 16-18 54-18 82 0 28-20 44-44 44s-44-16-44-44c0-28-2-66-18-82-16-18-76-14-104-26-56-22-66-88-26-120z" />
  </g>
</svg>
