<svg xmlns="http://www.w3.org/2000/svg" width="1024" height="1024" viewBox="0 0 1024 1024">
  <g id="group_fill" fill="#ffd166">
    <path d="M340 120c-52 42-48 150 0 204 30 34 72 34 104 6 26-24 38-76 34-118-4-34-28-58-60-64-24-4-32-22-34-40-2-18-26-26-44-12z" />
    <path d="M372 360c-34 48-32 128 4 170 26 30 68 28 94-2 24-26 26-84 16-122-10-34-64-56-114-46z" />
    <path d="M398 568c-26 36-22 96 6 128 22 26 58 26 80 0 24-32 22-86 6-118-14-26-64-32-92-10z" />
  </g>
  <g id="group_outline" fill="none" stroke="#101020" stroke-width="12" stroke-linecap="round" stroke-linejoin="round">
    <path d="M340 120c-52 42-48 150 0 204 30 34 72 34 104 6 26-24 38-76 34-118-4-34-28-58-60-64-24-4-32-22-34-40-2-18-26-26-44-12z" />
    <path d="M372 360c-34 48-32 128 4 170 26 30 68 28 94-2 24-26 26-84 16-122-10-34-64-56-114-46z" />
    <path d="M398 568c-26 36-22 96 6 128 22 26 58 26 80 0 24-32 22-86 6-118-14-26-64-32-92-10z" />
  </g>
</svg>
