<svg xmlns="http://www.w3.org/2000/svg" width="1024" height="1024" viewBox="0 0 1024 1024">
  <g id="group_shadow" opacity="0.14">
    <ellipse cx="500" cy="700" rx="240" ry="54" fill="#101020" />
  </g>
  <g id="group_fill" fill="#ffd166">
    <path d="M780 470c-90-14-180 40-234 20-52-20-78-62-138-78-78-22-186 8-214 98-18 56 10 116 74 136 32 10 60 30 78 60 40 70 134 92 210 48 22-12 50-16 76-10 74 16 142-44 126-120-6-28 8-58 28-78 44-42 34-70-6-76z" />
  </g>
  <g id="group_inner_highlights" fill="#ffffff" opacity="0.6">
    <ellipse cx="560" cy="540" rx="70" ry="24" />
    <ellipse cx="646" cy="620" rx="54" ry="18" />
  </g>
  <g id="group_outline" fill="none" stroke="#101020" stroke-width="12" stroke-linecap="round" stroke-linejoin="round">
    <path d="M780 470c-90-14-180 40-234 20-52-20-78-62-138-78-78-22-186 8-214 98-18 56 10 116 74 136 32 10 60 30 78 60 40 70 134 92 210 48 22-12 50-16 76-10 74 16 142-44 126-120-6-28 8-58 28-78 44-42 34-70-6-76z" />
  </g>
</svg>
