<svg xmlns="http://www.w3.org/2000/svg" width="1024" height="1024" viewBox="0 0 1024 1024">
  <g id="group_fill" fill="#ffd166">
    <path d="M240 160c86-52 458-52 544 0 60 36 46 120-34 148-42 14-120 12-144 36-24 22-28 76-28 112 0 32-22 56-52 56s-52-24-52-56c0-36-4-90-28-112-24-24-102-22-144-36-80-28-94-112-34-148z" />
  </g>
  <g id="group_outline" fill="none" stroke="#101020" stroke-width="12" stroke-linecap="round" stroke-linejoin="round">
    <path d="M240 160c86-52 458-52 544 0 60 36 46 120-34 148-42 14-120 12-144 36-24 22-28 76-28 112 0 32-22 56-52 56s-52-24-52-56c0-36-4-90-28-112-24-24-102-22-144-36-80-28-94-112-34-148z" />
  </g>
</svg>
