<svg xmlns="http://www.w3.org/2000/svg" width="1024" height="1024" viewBox="0 0 1024 1024">
  <g id="drip_frame" fill="#ffd166" stroke="#101020" stroke-width="12" stroke-linecap="round" stroke-linejoin="round" opacity="0.92">
    <path d="M0 0h1024v120c-120 60-240 40-320 0-90-44-180-44-270 0-80 40-200 60-434 0z" />
    <path d="M0 904c120 60 240 40 320 0 90-44 180-44 270 0 80 40 200 60 434 0V1024H0z" />
    <path d="M180 100c-20 32-18 86 10 118 26 30 60 22 72-8 14-38-16-98-82-110z" />
    <path d="M780 102c20 32 18 86-10 118-26 30-60 22-72-8-14-38 16-98 82-110z" />
    <path d="M260 860c-18 28-18 74 6 96 18 18 40 12 50-8 14-26 0-68-56-88z" />
    <path d="M760 860c18 28 18 74-6 96-18 18-40 12-50-8-14-26 0-68 56-88z" />
  </g>
</svg>
