<svg xmlns="http://www.w3.org/2000/svg" width="1024" height="1024" viewBox="0 0 1024 1024">
  <g id="group_vine" fill="none" stroke="#1cdd9c" stroke-width="12" stroke-linecap="round" stroke-linejoin="round">
    <path d="M160 180c120 80 260 120 420 90 120-22 200-68 280-130" />
    <path d="M320 220c-24 32-22 74 10 96 38-20 52-60 36-98" />
    <path d="M520 200c-12 32-6 72 20 92 32-24 36-66 10-98" />
    <path d="M700 200c-12 32-6 72 20 92 32-24 36-66 10-98" />
  </g>
  <g id="group_leaves" fill="#1cdd9c" stroke="#101020" stroke-width="8" stroke-linecap="round" stroke-linejoin="round">
    <path d="M280 236c-26 0-62 30-60 62 30 2 62-24 60-62z" />
    <path d="M500 222c-26 0-62 30-60 62 30 2 62-24 60-62z" />
    <path d="M686 216c-26 0-62 30-60 62 30 2 62-24 60-62z" />
  </g>
</svg>
