<svg xmlns="http://www.w3.org/2000/svg" viewBox="0 0 24 24" width="24" height="24" id="icon-50mklj9e4"><!-- Example 015 | errl_fest_cooler_box_01 -->
<svg xmlns="http://www.w3.org/2000/svg" viewBox="0 0 64 64" data-pack="errl_fest" data-cat="prop" data-name="errl_fest_cooler_box_01">
  <g fill="none">
    <rect x="20" y="32" width="24" height="12" rx="3" fill="#22d3ee"/>
    <rect x="20" y="30" width="24" height="4" rx="2" fill="#e5e7eb"/>
    <rect x="24" y="34" width="4" height="2" rx="1" fill="#0f172a" opacity="0.7"/>
    <rect x="36" y="34" width="4" height="2" rx="1" fill="#0f172a" opacity="0.7"/>
    <ellipse cx="32" cy="46" rx="14" ry="2.8" fill="#020617" opacity="0.4"/>
  </g>
</svg>

<!-- Example 016 | errl_fest_totem_errl_01 -->
<svg xmlns="http://www.w3.org/2000/svg" viewBox="0 0 64 64" data-pack="errl_fest" data-cat="prop" data-name="errl_fest_totem_errl_01">
  <g fill="none">
    <!-- pole -->
    <rect x="30" y="24" width="4" height="22" rx="1.5" fill="#78350f"/>
    <!-- sign plate -->
    <rect x="24" y="20" width="16" height="8" rx="3" fill="#111827"/>
    <!-- tiny errl blob -->
    <path d="M32 22 C29 22 27 24 27 26s2 4 5 4 5-2 5-4-2-4-5-4z" fill="#22d3ee"/>
    <ellipse cx="32" cy="48" rx="8" ry="2.5" fill="#020617" opacity="0.45"/>
  </g>
</svg>

<!-- Example 017 | errl_fest_waterstation_01 -->
<svg xmlns="http://www.w3.org/2000/svg" viewBox="0 0 64 64" data-pack="errl_fest" data-cat="prop" data-name="errl_fest_waterstation_01">
  <g fill="none">
    <!-- stand -->
    <rect x="20" y="32" width="24" height="12" rx="3" fill="#0f172a"/>
    <!-- jug -->
    <rect x="26" y="26" width="12" height="10" rx="3" fill="#22d3ee" opacity="0.9"/>
    <rect x="28" y="28" width="8" height="6" rx="2" fill="#e0f2fe" opacity="0.9"/>
    <!-- droplet icon -->
    <path d="M32 27 C30.8 28.5 30 30 30 31a2 2 0 0 0 4 0c0-1-0.8-2.5-2-4z" fill="#0ea5e9"/>
    <ellipse cx="32" cy="46" rx="14" ry="2.6" fill="#020617" opacity="0.45"/>
  </g>
</svg>

<!-- Example 018 | errl_fest_ticket_01 -->
<svg xmlns="http://www.w3.org/2000/svg" viewBox="0 0 64 64" data-pack="errl_fest" data-cat="ui" data-name="errl_fest_ticket_01">
  <g fill="none">
    <path d="M18 28 h28 a2 2 0 0 1 2 2 v3              a3 3 0 0 0 -3 3 3 3 0 0 0 3 3 v3              a2 2 0 0 1 -2 2 h-28              a2 2 0 0 1 -2 -2 v-3              a3 3 0 0 0 3 -3 3 3 0 0 0 -3 -3 v-3              a2 2 0 0 1 2 -2 z" fill="#f97316"/>
    <!-- fake barcode -->
    <rect x="38" y="30" width="6" height="12" fill="#0f172a" opacity="0.7"/>
    <rect x="39" y="31" width="1" height="10" fill="#e5e7eb"/>
    <rect x="41" y="31" width="1" height="10" fill="#e5e7eb" opacity="0.8"/>
    <!-- star -->
    <path d="M26 34 L27 36 L29 36.2 L27.6 37.5 L28 39.5 L26 38.6 L24 39.5 L24.4 37.5 23 36.2 25 36z" fill="#facc15"/>
  </g>
</svg>

<!-- Example 019 | errl_fest_wristband_01 -->
<svg xmlns="http://www.w3.org/2000/svg" viewBox="0 0 64 64" data-pack="errl_fest" data-cat="ui" data-name="errl_fest_wristband_01">
  <g fill="none">
    <path d="M16 32 C24 30 40 30 48 32              C40 34 24 34 16 32 Z" fill="#22d3ee"/>
    <circle cx="24" cy="32" r="2" fill="#0f172a" opacity="0.8"/>
    <circle cx="40" cy="32" r="2" fill="#0f172a" opacity="0.8"/>
    <rect x="28" y="31" width="8" height="2" rx="1" fill="#facc15"/>
  </g>
</svg>

<!-- Example 020 | errl_fest_badge_vip_01 -->
<svg xmlns="http://www.w3.org/2000/svg" viewBox="0 0 64 64" data-pack="errl_fest" data-cat="ui" data-name="errl_fest_badge_vip_01">
  <g fill="none">
    <!-- lanyard -->
    <path d="M24 14 L32 24 L40 14" stroke="#e5e7eb" stroke-width="1.6" stroke-linecap="round"/>
    <!-- badge body -->
    <rect x="26" y="24" width="12" height="16" rx="2" fill="#111827"/>
    <rect x="28" y="26" width="8" height="10" rx="1.5" fill="#22d3ee"/>
    <!-- star icon -->
    <path d="M32 29 L33 31 L35 31.2 L33.7 32.4 L34 34 L32 33.1 L30 34 L30.3 32.4 29 31.2 31 31z" fill="#facc15"/>
  </g>
</svg></svg>