<svg xmlns="http://www.w3.org/2000/svg" viewBox="0 0 24 24" width="24" height="24" id="icon-g2spd05rn"><!-- Example 101 | errl_fest_spiral_path_marker_01 (ui/env) -->
<svg xmlns="http://www.w3.org/2000/svg" viewBox="0 0 64 64" data-pack="errl_fest" data-cat="ui" data-name="errl_fest_spiral_path_marker_01">
  <g fill="none">
    <circle cx="32" cy="40" r="8" fill="#0f172a"/>
    <path d="M28 40a4 4 0 0 1 8 0 2 2 0 0 1-4 0" stroke="#22d3ee" stroke-width="1.6" stroke-linecap="round" fill="none"/>
    <circle cx="32" cy="40" r="1.4" fill="#facc15"/>
  </g>
</svg>

<!-- Example 102 | errl_fest_chair_stack_01 (prop) -->
<svg xmlns="http://www.w3.org/2000/svg" viewBox="0 0 64 64" data-pack="errl_fest" data-cat="prop" data-name="errl_fest_chair_stack_01">
  <g fill="none">
    <!-- back chair -->
    <path d="M22 32 L40 32 38 40 24 40 Z" fill="#111827" opacity="0.7"/>
    <!-- front chair -->
    <path d="M24 34 L42 34 40 42 26 42 Z" fill="#111827"/>
    <rect x="26" y="30" width="14" height="4" rx="2" fill="#0f172a"/>
    <ellipse cx="33" cy="46" rx="12" ry="2.6" fill="#020617" opacity="0.5"/>
  </g>
</svg>

<!-- Example 103 | errl_fest_poster_column_01 (env/ui) -->
<svg xmlns="http://www.w3.org/2000/svg" viewBox="0 0 64 64" data-pack="errl_fest" data-cat="env" data-name="errl_fest_poster_column_01">
  <g fill="none">
    <rect x="26" y="20" width="12" height="24" rx="3" fill="#111827"/>
    <rect x="28" y="22" width="8" height="8" rx="1.5" fill="#22d3ee"/>
    <rect x="28" y="32" width="8" height="6" rx="1.5" fill="#fb7185"/>
    <ellipse cx="32" cy="46" rx="9" ry="2.4" fill="#020617" opacity="0.45"/>
  </g>
</svg>

<!-- Example 104 | errl_fest_flagpole_arch_01 (env/fx) -->
<svg xmlns="http://www.w3.org/2000/svg" viewBox="0 0 64 64" data-pack="errl_fest" data-cat="env" data-name="errl_fest_flagpole_arch_01">
  <g fill="none">
    <!-- poles -->
    <rect x="16" y="26" width="3" height="20" rx="1.4" fill="#e5e7eb"/>
    <rect x="45" y="26" width="3" height="20" rx="1.4" fill="#e5e7eb"/>
    <!-- arc rope -->
    <path d="M17.5 28 C24 20 40 20 46.5 28" stroke="#e5e7eb" stroke-width="1.6" stroke-linecap="round"/>
    <!-- tiny flags -->
    <path d="M20 27 L23 30 L20 31 Z" fill="#fb7185"/>
    <path d="M28 24 L31 27 L28 28 Z" fill="#22d3ee"/>
    <path d="M36 24 L39 27 L36 28 Z" fill="#facc15"/>
    <path d="M44 27 L47 30 L44 31 Z" fill="#a855f7"/>
  </g>
</svg>

<!-- Example 105 | errl_fest_food_truck_01 (env/prop) -->
<svg xmlns="http://www.w3.org/2000/svg" viewBox="0 0 64 64" data-pack="errl_fest" data-cat="env" data-name="errl_fest_food_truck_01">
  <g fill="none">
    <!-- body -->
    <rect x="16" y="28" width="32" height="14" rx="3" fill="#111827"/>
    <!-- window -->
    <rect x="20" y="30" width="12" height="6" rx="1.5" fill="#020617"/>
    <!-- sign stripe -->
    <rect x="16" y="26" width="32" height="3" rx="1.5" fill="#fb7185"/>
    <!-- wheels -->
    <circle cx="22" cy="44" r="3" fill="#020617"/>
    <circle cx="22" cy="44" r="1.6" fill="#e5e7eb"/>
    <circle cx="42" cy="44" r="3" fill="#020617"/>
    <circle cx="42" cy="44" r="1.6" fill="#e5e7eb"/>
  </g>
</svg>

<!-- Example 106 | errl_fest_kiosk_cube_01 (env/prop) -->
<svg xmlns="http://www.w3.org/2000/svg" viewBox="0 0 64 64" data-pack="errl_fest" data-cat="env" data-name="errl_fest_kiosk_cube_01">
  <g fill="none">
    <rect x="20" y="26" width="24" height="18" rx="2" fill="#111827"/>
    <rect x="22" y="28" width="20" height="8" rx="1.5" fill="#020617"/>
    <rect x="22" y="38" width="8" height="4" rx="1.5" fill="#22d3ee"/>
    <ellipse cx="32" cy="46" rx="15" ry="2.6" fill="#020617" opacity="0.45"/>
  </g>
</svg>

<!-- Example 107 | errl_fest_light_string_vertical_01 (fx) -->
<svg xmlns="http://www.w3.org/2000/svg" viewBox="0 0 64 64" data-pack="errl_fest" data-cat="fx" data-name="errl_fest_light_string_vertical_01">
  <g fill="none">
    <path d="M32 12 V50" stroke="#e5e7eb" stroke-width="1.4" stroke-linecap="round"/>
    <circle cx="32" cy="18" r="1.4" fill="#facc15"/>
    <circle cx="32" cy="24" r="1.4" fill="#22d3ee"/>
    <circle cx="32" cy="30" r="1.4" fill="#a855f7"/>
    <circle cx="32" cy="36" r="1.4" fill="#fb7185"/>
    <circle cx="32" cy="42" r="1.4" fill="#f97316"/>
  </g>
</svg>

<!-- Example 108 | errl_fest_stage_banner_top_01 (fx/env) -->
<svg xmlns="http://www.w3.org/2000/svg" viewBox="0 0 64 64" data-pack="errl_fest" data-cat="fx" data-name="errl_fest_stage_banner_top_01">
  <g fill="none">
    <path d="M12 20 H52" stroke="#0f172a" stroke-width="3" stroke-linecap="round"/>
    <path d="M12 20 L32 26 L52 20 Z" fill="#22d3ee" opacity="0.85"/>
    <path d="M16 20 L22 24 L28 20 Z" fill="#fb7185"/>
    <path d="M36 20 L42 24 L48 20 Z" fill="#facc15"/>
  </g>
</svg>

<!-- Example 109 | errl_fest_gate_side_column_01 (env/prop) -->
<svg xmlns="http://www.w3.org/2000/svg" viewBox="0 0 64 64" data-pack="errl_fest" data-cat="env" data-name="errl_fest_gate_side_column_01">
  <g fill="none">
    <rect x="26" y="24" width="12" height="22" rx="3" fill="#0f172a"/>
    <rect x="28" y="26" width="8" height="10" rx="1.8" fill="#111827"/>
    <circle cx="32" cy="38" r="1.6" fill="#22d3ee"/>
    <ellipse cx="32" cy="48" rx="9" ry="2.4" fill="#020617" opacity="0.45"/>
  </g>
</svg>

<!-- Example 110 | errl_fest_ticket_booth_window_01 (env/ui) -->
<svg xmlns="http://www.w3.org/2000/svg" viewBox="0 0 64 64" data-pack="errl_fest" data-cat="env" data-name="errl_fest_ticket_booth_window_01">
  <g fill="none">
    <rect x="18" y="24" width="28" height="18" rx="2" fill="#111827"/>
    <!-- window arch -->
    <path d="M22 36 Q32 28 42 36 V38 H22 Z" fill="#020617"/>
    <!-- ledge -->
    <rect x="22" y="38" width="20" height="2.5" rx="1.3" fill="#0f172a"/>
  </g>
</svg>

<!-- Example 111 | errl_fest_barrel_table_01 (prop/env) -->
<svg xmlns="http://www.w3.org/2000/svg" viewBox="0 0 64 64" data-pack="errl_fest" data-cat="prop" data-name="errl_fest_barrel_table_01">
  <g fill="none">
    <ellipse cx="32" cy="28" rx="8" ry="3" fill="#0f172a"/>
    <rect x="24" y="28" width="16" height="10" rx="3" fill="#111827"/>
    <ellipse cx="32" cy="38" rx="8" ry="3" fill="#111827"/>
    <!-- tabletop -->
    <ellipse cx="32" cy="24" rx="9" ry="2.6" fill="#020617"/>
  </g>
</svg>

<!-- Example 112 | errl_fest_ticket_stub_ui_01 (ui) -->
<svg xmlns="http://www.w3.org/2000/svg" viewBox="0 0 64 64" data-pack="errl_fest" data-cat="ui" data-name="errl_fest_ticket_stub_ui_01">
  <g fill="none">
    <path d="M20 30 h24 a2 2 0 0 1 2 2 v2              a3 3 0 0 0 -3 3 3 3 0 0 0 3 3 v2              a2 2 0 0 1 -2 2 h-24              a2 2 0 0 1 -2 -2 v-2              a3 3 0 0 0 3 -3 3 3 0 0 0 -3 -3 v-2              a2 2 0 0 1 2 -2 z" fill="#22d3ee"/>
    <rect x="22" y="32" width="10" height="2.5" rx="1.2" fill="#0f172a" opacity="0.8"/>
    <circle cx="38" cy="36" r="1.6" fill="#0f172a"/>
  </g>
</svg>

<!-- Example 113 | errl_fest_vip_rope_corner_01 (ui/prop) -->
<svg xmlns="http://www.w3.org/2000/svg" viewBox="0 0 64 64" data-pack="errl_fest" data-cat="prop" data-name="errl_fest_vip_rope_corner_01">
  <g fill="none">
    <rect x="20" y="30" width="3" height="14" rx="1.4" fill="#e5e7eb"/>
    <rect x="40" y="30" width="3" height="14" rx="1.4" fill="#e5e7eb"/>
    <path d="M21.5 32 C26 28 32 28 40.5 32" stroke="#fb7185" stroke-width="2" stroke-linecap="round"/>
    <ellipse cx="21.5" cy="46" rx="3.8" ry="1.4" fill="#020617" opacity="0.6"/>
    <ellipse cx="41.5" cy="46" rx="3.8" ry="1.4" fill="#020617" opacity="0.6"/>
  </g>
</svg>

<!-- Example 114 | errl_fest_tent_flag_topper_01 (fx/prop) -->
<svg xmlns="http://www.w3.org/2000/svg" viewBox="0 0 64 64" data-pack="errl_fest" data-cat="fx" data-name="errl_fest_tent_flag_topper_01">
  <g fill="none">
    <rect x="30" y="20" width="2" height="8" rx="1" fill="#e5e7eb"/>
    <path d="M32 20 L38 22.5 32 25 Z" fill="#fb7185"/>
    <circle cx="31" cy="19" r="1.2" fill="#facc15"/>
  </g>
</svg>

<!-- Example 115 | errl_fest_ground_arrow_pair_01 (ui/env) -->
<svg xmlns="http://www.w3.org/2000/svg" viewBox="0 0 64 64" data-pack="errl_fest" data-cat="ui" data-name="errl_fest_ground_arrow_pair_01">
  <g fill="none">
    <ellipse cx="24" cy="44" rx="10" ry="3" fill="#020617"/>
    <ellipse cx="40" cy="44" rx="10" ry="3" fill="#020617"/>
    <path d="M24 40 L20 44 H22.5 V48 H25.5 V44 H28 Z" fill="#22d3ee"/>
    <path d="M40 40 L44 44 H41.5 V48 H38.5 V44 H36 Z" fill="#fb7185"/>
  </g>
</svg>

<!-- Example 116 | errl_fest_truss_segment_01 (env/prop) -->
<svg xmlns="http://www.w3.org/2000/svg" viewBox="0 0 64 64" data-pack="errl_fest" data-cat="env" data-name="errl_fest_truss_segment_01">
  <g fill="none">
    <rect x="18" y="24" width="28" height="10" rx="2" fill="#111827"/>
    <path d="M20 26 L44 32 M20 32 L44 26" stroke="#22d3ee" stroke-width="1.4" stroke-linecap="round" opacity="0.7"/>
  </g>
</svg>

<!-- Example 117 | errl_fest_banner_vertical_01 (env/fx) -->
<svg xmlns="http://www.w3.org/2000/svg" viewBox="0 0 64 64" data-pack="errl_fest" data-cat="env" data-name="errl_fest_banner_vertical_01">
  <g fill="none">
    <rect x="30" y="14" width="4" height="4" rx="1" fill="#e5e7eb"/>
    <rect x="28" y="18" width="8" height="26" rx="2" fill="#fb7185"/>
    <path d="M28 42 L32 46 36 42 Z" fill="#a855f7"/>
  </g>
</svg>

<!-- Example 118 | errl_fest_banner_vertical_02 (env/fx) -->
<svg xmlns="http://www.w3.org/2000/svg" viewBox="0 0 64 64" data-pack="errl_fest" data-cat="env" data-name="errl_fest_banner_vertical_02">
  <g fill="none">
    <rect x="30" y="14" width="4" height="4" rx="1" fill="#e5e7eb"/>
    <rect x="28" y="18" width="8" height="26" rx="2" fill="#22d3ee"/>
    <path d="M28 42 L32 46 36 42 Z" fill="#facc15"/>
  </g>
</svg>

<!-- Example 119 | errl_fest_nav_pylon_01 (env/ui) -->
<svg xmlns="http://www.w3.org/2000/svg" viewBox="0 0 64 64" data-pack="errl_fest" data-cat="env" data-name="errl_fest_nav_pylon_01">
  <g fill="none">
    <rect x="28" y="24" width="8" height="16" rx="2" fill="#111827"/>
    <rect x="26" y="22" width="12" height="4" rx="2" fill="#22d3ee"/>
    <ellipse cx="32" cy="44" rx="8" ry="2.4" fill="#020617" opacity="0.45"/>
  </g>
</svg>

<!-- Example 120 | errl_fest_corner_lightpost_01 (fx/prop) -->
<svg xmlns="http://www.w3.org/2000/svg" viewBox="0 0 64 64" data-pack="errl_fest" data-cat="fx" data-name="errl_fest_corner_lightpost_01">
  <g fill="none">
    <rect x="18" y="30" width="3" height="16" rx="1.4" fill="#e5e7eb"/>
    <rect x="19" y="26" width="6" height="3" rx="1.5" fill="#111827"/>
    <circle cx="22" cy="27.5" r="1.4" fill="#facc15"/>
    <ellipse cx="19.5" cy="48" rx="4" ry="1.6" fill="#020617" opacity="0.6"/>
  </g>
</svg></svg>