<svg xmlns="http://www.w3.org/2000/svg" viewBox="0 0 24 24" width="24" height="24" id="icon-17mq87mpw"><!-- Example 061 | errl_fest_campfire_circle_01 (env) -->
<svg xmlns="http://www.w3.org/2000/svg" viewBox="0 0 64 64" data-pack="errl_fest" data-cat="env" data-name="errl_fest_campfire_circle_01">
  <g fill="none">
    <!-- ground ring -->
    <ellipse cx="32" cy="44" rx="16" ry="5.5" fill="#020617"/>
    <!-- stones -->
    <circle cx="22" cy="42" r="2" fill="#4b5563"/>
    <circle cx="27" cy="40" r="2" fill="#6b7280"/>
    <circle cx="37" cy="40" r="2" fill="#4b5563"/>
    <circle cx="42" cy="42" r="2" fill="#6b7280"/>
    <!-- fire -->
    <path d="M32 34 C28 37 28 41 30 44s2 3 2.5 4c0.8-1.2 1.7-2.2 3-4s2-5 0-8-4-3-4-3z" fill="#f97316"/>
    <path d="M32 36 C30.5 38 30.5 40 31 41.5s1.2 2.2 1.6 2.9c0.7-0.9 1.3-1.6 1.7-2.9s0.3-2.7-0.6-4-2.1-1.5-2.7-1.5z" fill="#facc15"/>
  </g>
</svg>

<!-- Example 062 | errl_fest_rest_area_sign_01 (ui/env) -->
<svg xmlns="http://www.w3.org/2000/svg" viewBox="0 0 64 64" data-pack="errl_fest" data-cat="ui" data-name="errl_fest_rest_area_sign_01">
  <g fill="none">
    <!-- post -->
    <rect x="30" y="28" width="4" height="18" rx="1.5" fill="#0f172a"/>
    <!-- board -->
    <rect x="22" y="22" width="20" height="10" rx="2" fill="#111827"/>
    <!-- icon: simple seat -->
    <rect x="25" y="25" width="5" height="4" rx="1" fill="#22d3ee"/>
    <rect x="32" y="24" width="5" height="5" rx="1.5" fill="#fb7185"/>
    <ellipse cx="32" cy="48" rx="9" ry="2.4" fill="#020617" opacity="0.45"/>
  </g>
</svg>

<!-- Example 063 | errl_fest_first_aid_tent_01 (env/prop) -->
<svg xmlns="http://www.w3.org/2000/svg" viewBox="0 0 64 64" data-pack="errl_fest" data-cat="env" data-name="errl_fest_first_aid_tent_01">
  <g fill="none">
    <!-- roof -->
    <path d="M14 32 L32 20 50 32 Z" fill="#22d3ee"/>
    <!-- body -->
    <rect x="16" y="32" width="32" height="12" rx="2" fill="#020617"/>
    <!-- cross icon -->
    <rect x="28" y="34" width="8" height="2.4" rx="1" fill="#facc15"/>
    <rect x="30.8" y="32.2" width="2.4" height="8" rx="1" fill="#facc15"/>
    <ellipse cx="32" cy="48" rx="17" ry="3" fill="#111827" opacity="0.35"/>
  </g>
</svg>

<!-- Example 064 | errl_fest_info_booth_01 (env/ui) -->
<svg xmlns="http://www.w3.org/2000/svg" viewBox="0 0 64 64" data-pack="errl_fest" data-cat="ui" data-name="errl_fest_info_booth_01">
  <g fill="none">
    <!-- roof -->
    <rect x="18" y="22" width="28" height="4" rx="2" fill="#0f172a"/>
    <!-- body -->
    <rect x="18" y="26" width="28" height="14" rx="2" fill="#111827"/>
    <!-- counter -->
    <rect x="20" y="32" width="24" height="4" rx="1.5" fill="#22d3ee"/>
    <!-- “i” icon -->
    <circle cx="32" cy="28" r="2" fill="#facc15"/>
    <rect x="31.3" y="26.2" width="1.4" height="3.2" fill="#0f172a"/>
    <ellipse cx="32" cy="46" rx="16" ry="2.8" fill="#020617" opacity="0.45"/>
  </g>
</svg>

<!-- Example 065 | errl_fest_merch_booth_01 (env/prop) -->
<svg xmlns="http://www.w3.org/2000/svg" viewBox="0 0 64 64" data-pack="errl_fest" data-cat="env" data-name="errl_fest_merch_booth_01">
  <g fill="none">
    <!-- awning -->
    <path d="M14 24 H50 V28 H14 Z" fill="#fb7185"/>
    <path d="M14 28 C16 30 18 30 20 28 22 30 24 30 26 28 28 30 30 30 32 28 34 30 36 30 38 28 40 30 42 30 44 28 46 30 48 30 50 28" fill="none" stroke="#0f172a" stroke-width="1.2"/>
    <!-- body -->
    <rect x="16" y="28" width="32" height="14" rx="2" fill="#020617"/>
    <!-- hanging shirts -->
    <rect x="20" y="30" width="4" height="5" rx="1" fill="#22d3ee"/>
    <rect x="28" y="30" width="4" height="5" rx="1" fill="#a855f7"/>
    <rect x="36" y="30" width="4" height="5" rx="1" fill="#facc15"/>
    <ellipse cx="32" cy="46" rx="18" ry="2.8" fill="#020617" opacity="0.45"/>
  </g>
</svg>

<!-- Example 066 | errl_fest_restroom_sign_01 (ui/env) -->
<svg xmlns="http://www.w3.org/2000/svg" viewBox="0 0 64 64" data-pack="errl_fest" data-cat="ui" data-name="errl_fest_restroom_sign_01">
  <g fill="none">
    <rect x="20" y="22" width="24" height="18" rx="3" fill="#0f172a"/>
    <rect x="22" y="24" width="20" height="14" rx="2" fill="#111827"/>
    <!-- simple icons -->
    <circle cx="26" cy="28" r="1.5" fill="#e5e7eb"/>
    <rect x="25.3" y="29.5" width="1.4" height="6" rx="0.7" fill="#e5e7eb"/>
    <circle cx="38" cy="28" r="1.5" fill="#e5e7eb"/>
    <rect x="37.3" y="29.5" width="1.4" height="6" rx="0.7" fill="#e5e7eb"/>
    <ellipse cx="32" cy="46" rx="13" ry="2.6" fill="#020617" opacity="0.5"/>
  </g>
</svg>

<!-- Example 067 | errl_fest_fence_segment_01 (env/prop) -->
<svg xmlns="http://www.w3.org/2000/svg" viewBox="0 0 64 64" data-pack="errl_fest" data-cat="env" data-name="errl_fest_fence_segment_01">
  <g fill="none">
    <!-- bar -->
    <rect x="12" y="34" width="40" height="4" rx="2" fill="#111827"/>
    <!-- uprights -->
    <rect x="16" y="28" width="2" height="6" rx="1" fill="#4b5563"/>
    <rect x="24" y="28" width="2" height="6" rx="1" fill="#4b5563"/>
    <rect x="32" y="28" width="2" height="6" rx="1" fill="#4b5563"/>
    <rect x="40" y="28" width="2" height="6" rx="1" fill="#4b5563"/>
    <rect x="48" y="28" width="2" height="6" rx="1" fill="#4b5563"/>
  </g>
</svg>

<!-- Example 068 | errl_fest_queue_barrier_01 (prop/ui) -->
<svg xmlns="http://www.w3.org/2000/svg" viewBox="0 0 64 64" data-pack="errl_fest" data-cat="prop" data-name="errl_fest_queue_barrier_01">
  <g fill="none">
    <!-- posts -->
    <rect x="18" y="30" width="3" height="14" rx="1.4" fill="#e5e7eb"/>
    <rect x="43" y="30" width="3" height="14" rx="1.4" fill="#e5e7eb"/>
    <!-- rope -->
    <path d="M20 32 C26 28 35 28 44 32" stroke="#fb7185" stroke-width="2" stroke-linecap="round"/>
    <!-- bases -->
    <ellipse cx="19.5" cy="46" rx="4" ry="1.5" fill="#020617" opacity="0.6"/>
    <ellipse cx="44.5" cy="46" rx="4" ry="1.5" fill="#020617" opacity="0.6"/>
  </g>
</svg>

<!-- Example 069 | errl_fest_fire_spinners_01 (fx/char-ish) -->
<svg xmlns="http://www.w3.org/2000/svg" viewBox="0 0 64 64" data-pack="errl_fest" data-cat="fx" data-name="errl_fest_fire_spinners_01">
  <g fill="none">
    <!-- central performer -->
    <circle cx="32" cy="30" r="2.2" fill="#e5e7eb"/>
    <path d="M32 32 L32 38" stroke="#e5e7eb" stroke-width="2" stroke-linecap="round"/>
    <!-- poi trails -->
    <path d="M32 34 C26 32 22 30 20 26" stroke="#f97316" stroke-width="1.6" stroke-linecap="round"/>
    <path d="M32 34 C38 32 42 30 44 26" stroke="#f97316" stroke-width="1.6" stroke-linecap="round"/>
    <!-- flame ends -->
    <circle cx="20" cy="26" r="1.6" fill="#facc15"/>
    <circle cx="44" cy="26" r="1.6" fill="#facc15"/>
  </g>
</svg>

<!-- Example 070 | errl_fest_flag_pole_cluster_01 (prop/env) -->
<svg xmlns="http://www.w3.org/2000/svg" viewBox="0 0 64 64" data-pack="errl_fest" data-cat="prop" data-name="errl_fest_flag_pole_cluster_01">
  <g fill="none">
    <!-- poles -->
    <rect x="22" y="18" width="2" height="30" rx="1" fill="#e5e7eb"/>
    <rect x="32" y="16" width="2" height="32" rx="1" fill="#e5e7eb"/>
    <rect x="42" y="20" width="2" height="28" rx="1" fill="#e5e7eb"/>
    <!-- flags -->
    <path d="M24 20 L30 23 L24 26 Z" fill="#fb7185"/>
    <path d="M34 18 L42 21 L34 24 Z" fill="#22d3ee"/>
    <path d="M44 22 L52 25 L44 28 Z" fill="#facc15"/>
    <ellipse cx="32" cy="50" rx="18" ry="3" fill="#020617" opacity="0.45"/>
  </g>
</svg>

<!-- Example 071 | errl_fest_path_light_01 (fx/prop) -->
<svg xmlns="http://www.w3.org/2000/svg" viewBox="0 0 64 64" data-pack="errl_fest" data-cat="fx" data-name="errl_fest_path_light_01">
  <g fill="none">
    <!-- post -->
    <rect x="30" y="28" width="4" height="14" rx="2" fill="#0f172a"/>
    <!-- head -->
    <rect x="28" y="24" width="8" height="4" rx="2" fill="#111827"/>
    <circle cx="32" cy="26" r="1.6" fill="#facc15"/>
    <!-- glow -->
    <ellipse cx="32" cy="44" rx="10" ry="2.6" fill="#facc15" opacity="0.18"/>
  </g>
</svg>

<!-- Example 072 | errl_fest_arch_neon_01 (fx/env) -->
<svg xmlns="http://www.w3.org/2000/svg" viewBox="0 0 64 64" data-pack="errl_fest" data-cat="fx" data-name="errl_fest_arch_neon_01">
  <g fill="none">
    <path d="M14 40 C18 28 24 22 32 22s14 6 18 18" stroke="#22d3ee" stroke-width="3" stroke-linecap="round" opacity="0.85"/>
    <path d="M18 40 C21.5 30 26 26 32 26s10.5 4 14 14" stroke="#a855f7" stroke-width="2" stroke-linecap="round" opacity="0.9"/>
  </g>
</svg>

<!-- Example 073 | errl_fest_spotlight_pair_01 (fx/prop) -->
<svg xmlns="http://www.w3.org/2000/svg" viewBox="0 0 64 64" data-pack="errl_fest" data-cat="fx" data-name="errl_fest_spotlight_pair_01">
  <g fill="none">
    <!-- fixtures -->
    <rect x="18" y="40" width="6" height="4" rx="1.5" fill="#020617"/>
    <rect x="40" y="40" width="6" height="4" rx="1.5" fill="#020617"/>
    <!-- beams -->
    <path d="M21 40 L10 26 L22 26 Z" fill="#22d3ee" opacity="0.22"/>
    <path d="M43 40 L54 26 L42 26 Z" fill="#fb7185" opacity="0.22"/>
  </g>
</svg>

<!-- Example 074 | errl_fest_fog_machine_01 (fx/prop) -->
<svg xmlns="http://www.w3.org/2000/svg" viewBox="0 0 64 64" data-pack="errl_fest" data-cat="fx" data-name="errl_fest_fog_machine_01">
  <g fill="none">
    <!-- box -->
    <rect x="22" y="36" width="20" height="8" rx="2" fill="#020617"/>
    <circle cx="26" cy="40" r="1.5" fill="#22d3ee"/>
    <!-- nozzle -->
    <rect x="40" y="38" width="4" height="4" rx="1" fill="#111827"/>
    <!-- fog puffs -->
    <circle cx="46" cy="38" r="2.2" fill="#e5e7eb" opacity="0.75"/>
    <circle cx="49" cy="40" r="2.0" fill="#e5e7eb" opacity="0.6"/>
    <circle cx="46" cy="42" r="1.8" fill="#e5e7eb" opacity="0.5"/>
  </g>
</svg>

<!-- Example 075 | errl_fest_generator_box_01 (prop/env) -->
<svg xmlns="http://www.w3.org/2000/svg" viewBox="0 0 64 64" data-pack="errl_fest" data-cat="prop" data-name="errl_fest_generator_box_01">
  <g fill="none">
    <rect x="18" y="32" width="28" height="12" rx="2" fill="#111827"/>
    <!-- panel -->
    <rect x="20" y="34" width="12" height="4" rx="1" fill="#020617"/>
    <!-- indicator -->
    <circle cx="36" cy="38" r="1.4" fill="#22d3ee"/>
    <circle cx="40" cy="38" r="1.4" fill="#facc15"/>
    <ellipse cx="32" cy="46" rx="16" ry="2.6" fill="#020617" opacity="0.45"/>
  </g>
</svg>

<!-- Example 076 | errl_fest_security_tower_01 (env/prop) -->
<svg xmlns="http://www.w3.org/2000/svg" viewBox="0 0 64 64" data-pack="errl_fest" data-cat="env" data-name="errl_fest_security_tower_01">
  <g fill="none">
    <!-- tower -->
    <rect x="28" y="24" width="8" height="22" rx="2" fill="#111827"/>
    <!-- cab -->
    <rect x="26" y="18" width="12" height="6" rx="1.5" fill="#020617"/>
    <rect x="28" y="19" width="8" height="4" rx="1" fill="#1e293b"/>
    <!-- lights -->
    <circle cx="29" cy="21" r="0.9" fill="#22d3ee"/>
    <circle cx="35" cy="21" r="0.9" fill="#facc15"/>
    <ellipse cx="32" cy="50" rx="11" ry="2.6" fill="#020617" opacity="0.5"/>
  </g>
</svg>

<!-- Example 077 | errl_fest_signpost_multi_01 (ui/prop) -->
<svg xmlns="http://www.w3.org/2000/svg" viewBox="0 0 64 64" data-pack="errl_fest" data-cat="ui" data-name="errl_fest_signpost_multi_01">
  <g fill="none">
    <!-- pole -->
    <rect x="30" y="20" width="4" height="24" rx="1.5" fill="#78350f"/>
    <!-- signs -->
    <path d="M22 22 H36 L40 26 H22 Z" fill="#22d3ee"/>
    <path d="M24 30 H42 L38 34 H24 Z" fill="#fb7185"/>
    <ellipse cx="32" cy="48" rx="9" ry="2.4" fill="#020617" opacity="0.45"/>
  </g>
</svg>

<!-- Example 078 | errl_fest_tent_chill_cluster_01 (env) -->
<svg xmlns="http://www.w3.org/2000/svg" viewBox="0 0 64 64" data-pack="errl_fest" data-cat="env" data-name="errl_fest_tent_chill_cluster_01">
  <g fill="none">
    <!-- back tent -->
    <path d="M14 34 L26 22 38 34 Z" fill="#22d3ee" opacity="0.85"/>
    <!-- front smaller -->
    <path d="M22 38 L32 26 44 38 Z" fill="#fb7185"/>
    <!-- rug -->
    <ellipse cx="32" cy="44" rx="16" ry="4.5" fill="#020617"/>
  </g>
</svg>

<!-- Example 079 | errl_fest_water_barrel_01 (prop/env) -->
<svg xmlns="http://www.w3.org/2000/svg" viewBox="0 0 64 64" data-pack="errl_fest" data-cat="prop" data-name="errl_fest_water_barrel_01">
  <g fill="none">
    <ellipse cx="32" cy="30" rx="8" ry="3" fill="#0f172a"/>
    <rect x="24" y="30" width="16" height="10" rx="3" fill="#111827"/>
    <ellipse cx="32" cy="40" rx="8" ry="3" fill="#111827"/>
    <!-- water line -->
    <ellipse cx="32" cy="30" rx="6" ry="2" fill="#22d3ee" opacity="0.7"/>
    <ellipse cx="32" cy="44" rx="10" ry="2.6" fill="#020617" opacity="0.45"/>
  </g>
</svg>

<!-- Example 080 | errl_fest_phone_charging_station_01 (ui/prop) -->
<svg xmlns="http://www.w3.org/2000/svg" viewBox="0 0 64 64" data-pack="errl_fest" data-cat="ui" data-name="errl_fest_phone_charging_station_01">
  <g fill="none">
    <!-- base -->
    <rect x="22" y="34" width="20" height="10" rx="2" fill="#111827"/>
    <!-- upright sign -->
    <rect x="29" y="22" width="6" height="10" rx="1.5" fill="#020617"/>
    <rect x="30" y="23" width="4" height="8" rx="1" fill="#22d3ee"/>
    <!-- tiny lightning bolt -->
    <path d="M32 24 L30.8 27 H32.4 L31.6 30" fill="#facc15"/>
    <!-- ports -->
    <rect x="24" y="37" width="3" height="2" rx="1" fill="#22d3ee"/>
    <rect x="30" y="37" width="3" height="2" rx="1" fill="#22d3ee"/>
    <rect x="36" y="37" width="3" height="2" rx="1" fill="#22d3ee"/>
  </g>
</svg></svg>