<svg xmlns="http://www.w3.org/2000/svg" viewBox="0 0 24 24" width="24" height="24" id="icon-wxqnerfq1"><!-- Example 041 | errl_fest_ground_pattern_01 -->
<svg xmlns="http://www.w3.org/2000/svg" viewBox="0 0 64 64" data-pack="errl_fest" data-cat="env" data-name="errl_fest_ground_pattern_01">
  <g fill="none">
    <ellipse cx="32" cy="44" rx="16" ry="6" fill="#0f172a"/>
    <ellipse cx="32" cy="44" rx="13" ry="4.5" fill="#111827"/>
    <circle cx="32" cy="44" r="3" fill="#22d3ee"/>
    <path d="M32 38 L34 40 L32 42 L30 40 Z" fill="#fb7185"/>
    <path d="M26 44 L28 42 L30 44 L28 46 Z" fill="#facc15"/>
    <path d="M38 44 L36 42 L34 44 L36 46 Z" fill="#a855f7"/>
  </g>
</svg>

<!-- Example 042 | errl_fest_confetti_01 -->
<svg xmlns="http://www.w3.org/2000/svg" viewBox="0 0 64 64" data-pack="errl_fest" data-cat="fx" data-name="errl_fest_confetti_01">
  <g fill="none">
    <rect x="18" y="26" width="2" height="5" rx="1" fill="#fb7185"/>
    <rect x="24" y="20" width="2" height="5" rx="1" fill="#22d3ee"/>
    <rect x="30" y="24" width="2" height="5" rx="1" fill="#facc15"/>
    <rect x="36" y="18" width="2" height="5" rx="1" fill="#a855f7"/>
    <rect x="42" y="24" width="2" height="5" rx="1" fill="#fb7185"/>

    <circle cx="22" cy="32" r="1" fill="#22d3ee"/>
    <circle cx="28" cy="30" r="1" fill="#f97316"/>
    <circle cx="34" cy="32" r="1" fill="#a855f7"/>
    <circle cx="40" cy="30" r="1" fill="#facc15"/>
  </g>
</svg>

<!-- Example 043 | errl_fest_confetti_02 -->
<svg xmlns="http://www.w3.org/2000/svg" viewBox="0 0 64 64" data-pack="errl_fest" data-cat="fx" data-name="errl_fest_confetti_02">
  <g fill="none">
    <rect x="20" y="10" width="2" height="4" rx="1" fill="#fb7185"/>
    <rect x="24" y="16" width="2" height="4" rx="1" fill="#22d3ee"/>
    <rect x="18" y="22" width="2" height="4" rx="1" fill="#a855f7"/>
    <rect x="26" y="28" width="2" height="4" rx="1" fill="#facc15"/>
    <rect x="20" y="34" width="2" height="4" rx="1" fill="#f97316"/>
    <rect x="24" y="40" width="2" height="4" rx="1" fill="#22d3ee"/>
    <circle cx="22" cy="18" r="1" fill="#facc15"/>
    <circle cx="26" cy="24" r="1" fill="#a855f7"/>
    <circle cx="20" cy="30" r="1" fill="#22d3ee"/>
    <circle cx="24" cy="36" r="1" fill="#fb7185"/>
  </g>
</svg>

<!-- Example 044 | errl_fest_projection_screen_01 -->
<svg xmlns="http://www.w3.org/2000/svg" viewBox="0 0 64 64" data-pack="errl_fest" data-cat="env" data-name="errl_fest_projection_screen_01">
  <g fill="none">
    <!-- frame -->
    <rect x="12" y="18" width="40" height="22" rx="2" fill="#020617"/>
    <!-- screen -->
    <rect x="14" y="20" width="36" height="18" rx="1.5" fill="#111827"/>
    <!-- subtle gradient-ish blocks -->
    <rect x="14" y="20" width="18" height="18" fill="#1e293b" opacity="0.7"/>
    <rect x="32" y="20" width="18" height="18" fill="#0f172a" opacity="0.8"/>
    <!-- stand -->
    <rect x="30" y="40" width="4" height="8" rx="1.5" fill="#020617"/>
    <rect x="24" y="48" width="16" height="3" rx="1.5" fill="#020617"/>
  </g>
</svg>

<!-- Example 045 | errl_fest_projection_art_01 -->
<svg xmlns="http://www.w3.org/2000/svg" viewBox="0 0 64 64" data-pack="errl_fest" data-cat="fx" data-name="errl_fest_projection_art_01">
  <g fill="none">
    <rect x="14" y="20" width="36" height="18" rx="2" fill="#0f172a"/>
    <!-- abstract shapes -->
    <circle cx="24" cy="29" r="5" fill="#22d3ee"/>
    <circle cx="40" cy="27" r="4" fill="#fb7185"/>
    <path d="M28 32 C32 36 36 36 42 34" stroke="#facc15" stroke-width="2" stroke-linecap="round"/>
  </g>
</svg>

<!-- Example 046–050: duplicates from 22–26 are already in the file  -->
<!-- Continuing with 051–060 below -->

<!-- Example 051 (actually reusing existing dome or stage variants) -->
<!-- Since 46-50 are duplicates in your file, I'll continue logically from 051 -->

<!-- Example 051 | errl_fest_dome_01 (duplicate from 027, skip) -->
<!-- Example 052 | errl_fest_gate_01 (duplicate from 028, skip) -->
<!-- Example 053 | errl_fest_tower_light_01 (duplicate from 029, skip) -->
<!-- Example 054 | errl_fest_string_lights_01 (duplicate from 030, skip) -->
<!-- Example 055 | errl_fest_flags_line_01 (duplicate from 031, skip) -->

<!-- Let me create NEW 56–60 variations based on fest theme -->

<!-- Example 056 | errl_fest_speaker_stack_01 -->
<svg xmlns="http://www.w3.org/2000/svg" viewBox="0 0 64 64" data-pack="errl_fest" data-cat="prop" data-name="errl_fest_speaker_stack_01">
  <g fill="none">
    <rect x="20" y="28" width="24" height="8" rx="2" fill="#020617"/>
    <circle cx="28" cy="32" r="2.5" fill="#22d3ee"/>
    <circle cx="36" cy="32" r="2.5" fill="#22d3ee"/>
    <rect x="20" y="38" width="24" height="8" rx="2" fill="#0f172a"/>
    <circle cx="28" cy="42" r="2.5" fill="#a855f7"/>
    <circle cx="36" cy="42" r="2.5" fill="#a855f7"/>
    <ellipse cx="32" cy="48" rx="14" ry="2.6" fill="#020617" opacity="0.45"/>
  </g>
</svg>

<!-- Example 057 | errl_fest_dj_booth_01 -->
<svg xmlns="http://www.w3.org/2000/svg" viewBox="0 0 64 64" data-pack="errl_fest" data-cat="env" data-name="errl_fest_dj_booth_01">
  <g fill="none">
    <!-- table -->
    <rect x="16" y="32" width="32" height="10" rx="2" fill="#0f172a"/>
    <!-- equipment -->
    <rect x="20" y="28" width="10" height="6" rx="1.5" fill="#111827"/>
    <rect x="34" y="28" width="10" height="6" rx="1.5" fill="#111827"/>
    <!-- knobs -->
    <circle cx="23" cy="31" r="1" fill="#22d3ee"/>
    <circle cx="27" cy="31" r="1" fill="#facc15"/>
    <circle cx="37" cy="31" r="1" fill="#fb7185"/>
    <circle cx="41" cy="31" r="1" fill="#a855f7"/>
    <ellipse cx="32" cy="48" rx="18" ry="3" fill="#020617" opacity="0.5"/>
  </g>
</svg>

<!-- Example 058 | errl_fest_trashcan_01 -->
<svg xmlns="http://www.w3.org/2000/svg" viewBox="0 0 64 64" data-pack="errl_fest" data-cat="prop" data-name="errl_fest_trashcan_01">
  <g fill="none">
    <path d="M24 30 L26 46 38 46 40 30 Z" fill="#111827"/>
    <rect x="24" y="28" width="16" height="3" rx="1.5" fill="#0f172a"/>
    <rect x="28" y="26" width="8" height="2" rx="1" fill="#334155"/>
    <ellipse cx="32" cy="48" rx="10" ry="2.5" fill="#020617" opacity="0.45"/>
  </g>
</svg>

<!-- Example 059 | errl_fest_recycling_bin_01 -->
<svg xmlns="http://www.w3.org/2000/svg" viewBox="0 0 64 64" data-pack="errl_fest" data-cat="prop" data-name="errl_fest_recycling_bin_01">
  <g fill="none">
    <path d="M24 30 L26 46 38 46 40 30 Z" fill="#166534"/>
    <rect x="24" y="28" width="16" height="3" rx="1.5" fill="#14532d"/>
    <!-- recycle symbol -->
    <path d="M32 35 L30 38 L34 38 Z M32 35 L34 32 L30 32 Z" fill="#22c55e"/>
    <ellipse cx="32" cy="48" rx="10" ry="2.5" fill="#020617" opacity="0.45"/>
  </g>
</svg>

<!-- Example 060 | errl_fest_map_kiosk_01 -->
<svg xmlns="http://www.w3.org/2000/svg" viewBox="0 0 64 64" data-pack="errl_fest" data-cat="ui" data-name="errl_fest_map_kiosk_01">
  <g fill="none">
    <!-- stand -->
    <rect x="28" y="38" width="8" height="10" rx="2" fill="#0f172a"/>
    <rect x="24" y="48" width="16" height="3" rx="1.5" fill="#020617"/>
    <!-- sign board -->
    <rect x="20" y="20" width="24" height="18" rx="2" fill="#111827"/>
    <rect x="22" y="22" width="20" height="14" rx="1.5" fill="#1e293b"/>
    <!-- "map" lines -->
    <path d="M24 24 L30 28 L38 26" stroke="#22d3ee" stroke-width="1.2" stroke-linecap="round"/>
    <path d="M26 30 L34 32 L38 30" stroke="#fb7185" stroke-width="1.2" stroke-linecap="round"/>
    <!-- you are here dot -->
    <circle cx="32" cy="28" r="1.5" fill="#facc15"/>
  </g>
</svg></svg>