<svg xmlns="http://www.w3.org/2000/svg" viewBox="0 0 24 24" width="24" height="24" id="icon-1msaamza5">keep going

Here’s another batch of **Festival** assets in the same style; you can treat these as 221–240.

```xml
<!-- Example 221 | errl_fest_portal_circle_fx_01 (fx) -->
<svg xmlns="http://www.w3.org/2000/svg" viewBox="0 0 64 64" data-pack="errl_fest" data-cat="fx" data-name="errl_fest_portal_circle_fx_01">
  <g fill="none">
    <circle cx="32" cy="32" r="11" fill="#020617"/>
    <circle cx="32" cy="32" r="8" stroke="#22d3ee" stroke-width="2" opacity="0.8"/>
    <circle cx="32" cy="32" r="5" stroke="#a855f7" stroke-width="1.4" opacity="0.7" stroke-dasharray="3 2"/>
  </g>
</svg>

<!-- Example 222 | errl_fest_portal_circle_fx_neon_01 (fx) -->
<svg xmlns="http://www.w3.org/2000/svg" viewBox="0 0 64 64" data-pack="errl_fest" data-cat="fx" data-name="errl_fest_portal_circle_fx_neon_01">
  <g fill="none">
    <circle cx="32" cy="32" r="10" stroke="#22d3ee" stroke-width="3" opacity="0.9"/>
    <circle cx="32" cy="32" r="6" stroke="#facc15" stroke-width="2" opacity="0.8"/>
  </g>
</svg>

<!-- Example 223 | errl_fest_stage_ceiling_grid_01 (fx/env) -->
<svg xmlns="http://www.w3.org/2000/svg" viewBox="0 0 64 64" data-pack="errl_fest" data-cat="fx" data-name="errl_fest_stage_ceiling_grid_01">
  <g fill="none">
    <rect x="14" y="16" width="36" height="10" rx="2" fill="#020617"/>
    <path d="M16 18 H48 M16 22 H48 M22 16 V26 M30 16 V26 M38 16 V26 M46 16 V26" stroke="#111827" stroke-width="1.2" stroke-linecap="round"/>
  </g>
</svg>

<!-- Example 224 | errl_fest_stage_floor_glow_01 (fx/env) -->
<svg xmlns="http://www.w3.org/2000/svg" viewBox="0 0 64 64" data-pack="errl_fest" data-cat="fx" data-name="errl_fest_stage_floor_glow_01">
  <g fill="none">
    <rect x="14" y="40" width="36" height="6" rx="2" fill="#020617"/>
    <rect x="16" y="41" width="32" height="4" rx="2" fill="#22d3ee" opacity="0.5"/>
  </g>
</svg>

<!-- Example 225 | errl_fest_info_pill_small_01 (ui) -->
<svg xmlns="http://www.w3.org/2000/svg" viewBox="0 0 64 64" data-pack="errl_fest" data-cat="ui" data-name="errl_fest_info_pill_small_01">
  <g fill="none">
    <rect x="22" y="28" width="20" height="8" rx="4" fill="#111827"/>
    <circle cx="27" cy="32" r="1.6" fill="#22d3ee"/>
    <rect x="30" y="31" width="9" height="2" rx="1" fill="#4b5563"/>
  </g>
</svg>

<!-- Example 226 | errl_fest_warning_pill_small_01 (ui) -->
<svg xmlns="http://www.w3.org/2000/svg" viewBox="0 0 64 64" data-pack="errl_fest" data-cat="ui" data-name="errl_fest_warning_pill_small_01">
  <g fill="none">
    <rect x="22" y="28" width="20" height="8" rx="4" fill="#f97316"/>
    <rect x="30" y="29" width="4" height="4" rx="1" fill="#0f172a"/>
  </g>
</svg>

<!-- Example 227 | errl_fest_staff_radio_icon_01 (ui/prop) -->
<svg xmlns="http://www.w3.org/2000/svg" viewBox="0 0 64 64" data-pack="errl_fest" data-cat="ui" data-name="errl_fest_staff_radio_icon_01">
  <g fill="none">
    <rect x="28" y="26" width="8" height="14" rx="2" fill="#111827"/>
    <rect x="30" y="22" width="4" height="4" rx="1" fill="#0f172a"/>
    <circle cx="31" cy="32" r="1.2" fill="#22d3ee"/>
    <circle cx="33" cy="36" r="1" fill="#facc15"/>
  </g>
</svg>

<!-- Example 228 | errl_fest_mixer_console_icon_01 (ui/prop) -->
<svg xmlns="http://www.w3.org/2000/svg" viewBox="0 0 64 64" data-pack="errl_fest" data-cat="ui" data-name="errl_fest_mixer_console_icon_01">
  <g fill="none">
    <rect x="22" y="26" width="20" height="12" rx="2" fill="#111827"/>
    <rect x="24" y="28" width="3" height="8" rx="1.5" fill="#22d3ee"/>
    <rect x="30" y="28" width="3" height="8" rx="1.5" fill="#a855f7"/>
    <rect x="36" y="28" width="3" height="8" rx="1.5" fill="#facc15"/>
  </g>
</svg>

<!-- Example 229 | errl_fest_light_orb_pair_01 (fx) -->
<svg xmlns="http://www.w3.org/2000/svg" viewBox="0 0 64 64" data-pack="errl_fest" data-cat="fx" data-name="errl_fest_light_orb_pair_01">
  <g fill="none">
    <circle cx="26" cy="30" r="3.4" fill="#22d3ee"/>
    <circle cx="38" cy="34" r="3.4" fill="#fb7185"/>
  </g>
</svg>

<!-- Example 230 | errl_fest_light_orb_triple_01 (fx) -->
<svg xmlns="http://www.w3.org/2000/svg" viewBox="0 0 64 64" data-pack="errl_fest" data-cat="fx" data-name="errl_fest_light_orb_triple_01">
  <g fill="none">
    <circle cx="24" cy="32" r="3.2" fill="#22d3ee"/>
    <circle cx="32" cy="28" r="3.2" fill="#a855f7"/>
    <circle cx="40" cy="32" r="3.2" fill="#facc15"/>
  </g>
</svg>

<!-- Example 231 | errl_fest_ground_dust_puff_01 (fx/env) -->
<svg xmlns="http://www.w3.org/2000/svg" viewBox="0 0 64 64" data-pack="errl_fest" data-cat="fx" data-name="errl_fest_ground_dust_puff_01">
  <g fill="none">
    <ellipse cx="28" cy="44" rx="6" ry="2" fill="#e5e7eb" opacity="0.5"/>
    <ellipse cx="36" cy="44" rx="6" ry="2" fill="#e5e7eb" opacity="0.4"/>
  </g>
</svg>

<!-- Example 232 | errl_fest_bottle_crate_icon_01 (ui/prop) -->
<svg xmlns="http://www.w3.org/2000/svg" viewBox="0 0 64 64" data-pack="errl_fest" data-cat="ui" data-name="errl_fest_bottle_crate_icon_01">
  <g fill="none">
    <rect x="24" y="30" width="16" height="8" rx="2" fill="#111827"/>
    <rect x="26" y="28" width="3" height="4" rx="1.2" fill="#22d3ee"/>
    <rect x="31" y="28" width="3" height="4" rx="1.2" fill="#22d3ee"/>
    <rect x="36" y="28" width="3" height="4" rx="1.2" fill="#22d3ee"/>
  </g>
</svg>

<!-- Example 233 | errl_fest_food_tray_icon_01 (ui/prop) -->
<svg xmlns="http://www.w3.org/2000/svg" viewBox="0 0 64 64" data-pack="errl_fest" data-cat="ui" data-name="errl_fest_food_tray_icon_01">
  <g fill="none">
    <rect x="24" y="32" width="16" height="6" rx="2" fill="#0f172a"/>
    <circle cx="28" cy="35" r="1.4" fill="#facc15"/>
    <circle cx="32" cy="35" r="1.4" fill="#fb7185"/>
    <circle cx="36" cy="35" r="1.4" fill="#22d3ee"/>
  </g>
</svg>

<!-- Example 234 | errl_fest_foam_hand_icon_01 (ui/prop) -->
<svg xmlns="http://www.w3.org/2000/svg" viewBox="0 0 64 64" data-pack="errl_fest" data-cat="ui" data-name="errl_fest_foam_hand_icon_01">
  <g fill="none">
    <path d="M28 24 L36 24 38 36 30 38 Z" fill="#22d3ee"/>
    <rect x="32" y="20" width="2" height="6" rx="1" fill="#0f172a"/>
  </g>
</svg>

<!-- Example 235 | errl_fest_headliner_star_icon_01 (ui) -->
<svg xmlns="http://www.w3.org/2000/svg" viewBox="0 0 64 64" data-pack="errl_fest" data-cat="ui" data-name="errl_fest_headliner_star_icon_01">
  <g fill="none">
    <circle cx="32" cy="32" r="7" fill="#0f172a"/>
    <path d="M32 26 L33.6 29.4 37.2 29.8 34.6 32.1 35.3 35.6 32 33.8 28.7 35.6 29.4 32.1 26.8 29.8 30.4 29.4 Z" fill="#facc15"/>
  </g>
</svg>

<!-- Example 236 | errl_fest_crowd_gate_icon_01 (ui/env) -->
<svg xmlns="http://www.w3.org/2000/svg" viewBox="0 0 64 64" data-pack="errl_fest" data-cat="ui" data-name="errl_fest_crowd_gate_icon_01">
  <g fill="none">
    <rect x="22" y="30" width="20" height="8" rx="2" fill="#0f172a"/>
    <rect x="24" y="32" width="4" height="4" rx="1" fill="#22d3ee"/>
    <rect x="36" y="32" width="4" height="4" rx="1" fill="#22d3ee"/>
  </g>
</svg>

<!-- Example 237 | errl_fest_crowd_gate_icon_alt_01 (ui/env) -->
<svg xmlns="http://www.w3.org/2000/svg" viewBox="0 0 64 64" data-pack="errl_fest" data-cat="ui" data-name="errl_fest_crowd_gate_icon_alt_01">
  <g fill="none">
    <rect x="22" y="30" width="20" height="8" rx="2" fill="#0f172a"/>
    <rect x="24" y="32" width="4" height="4" rx="1" fill="#fb7185"/>
    <rect x="30" y="32" width="4" height="4" rx="1" fill="#22d3ee"/>
    <rect x="36" y="32" width="4" height="4" rx="1" fill="#facc15"/>
  </g>
</svg></svg>