<svg xmlns="http://www.w3.org/2000/svg" viewBox="0 0 24 24" width="24" height="24" id="icon-nrsqje4h3"><!-- Example 201 | errl_fest_light_donut_ring_01 (fx) -->
<svg xmlns="http://www.w3.org/2000/svg" viewBox="0 0 64 64" data-pack="errl_fest" data-cat="fx" data-name="errl_fest_light_donut_ring_01">
  <g fill="none">
    <circle cx="32" cy="32" r="10" fill="#0f172a"/>
    <circle cx="32" cy="32" r="7" fill="#22d3ee"/>
    <circle cx="32" cy="32" r="3" fill="#0f172a"/>
  </g>
</svg>

<!-- Example 202 | errl_fest_light_donut_ring_neon_01 (fx) -->
<svg xmlns="http://www.w3.org/2000/svg" viewBox="0 0 64 64" data-pack="errl_fest" data-cat="fx" data-name="errl_fest_light_donut_ring_neon_01">
  <g fill="none">
    <circle cx="32" cy="32" r="10" stroke="#22d3ee" stroke-width="3" opacity="0.7"/>
    <circle cx="32" cy="32" r="6" stroke="#a855f7" stroke-width="2" opacity="0.8" stroke-dasharray="4 3"/>
  </g>
</svg>

<!-- Example 203 | errl_fest_glow_column_short_01 (fx/env) -->
<svg xmlns="http://www.w3.org/2000/svg" viewBox="0 0 64 64" data-pack="errl_fest" data-cat="fx" data-name="errl_fest_glow_column_short_01">
  <g fill="none">
    <rect x="28" y="32" width="8" height="10" rx="2" fill="#111827"/>
    <rect x="29.5" y="33.5" width="5" height="7" rx="2.5" fill="#22d3ee" opacity="0.9"/>
    <ellipse cx="32" cy="44" rx="9" ry="2.5" fill="#22d3ee" opacity="0.16"/>
  </g>
</svg>

<!-- Example 204 | errl_fest_stage_stairs_01 (env/prop) -->
<svg xmlns="http://www.w3.org/2000/svg" viewBox="0 0 64 64" data-pack="errl_fest" data-cat="env" data-name="errl_fest_stage_stairs_01">
  <g fill="none">
    <rect x="22" y="34" width="20" height="3" rx="1.5" fill="#111827"/>
    <rect x="24" y="37" width="16" height="3" rx="1.5" fill="#0f172a"/>
    <rect x="26" y="40" width="12" height="3" rx="1.5" fill="#020617"/>
  </g>
</svg>

<!-- Example 205 | errl_fest_tent_icon_mainstage_01 (ui/env) -->
<svg xmlns="http://www.w3.org/2000/svg" viewBox="0 0 64 64" data-pack="errl_fest" data-cat="ui" data-name="errl_fest_tent_icon_mainstage_01">
  <g fill="none">
    <rect x="22" y="24" width="20" height="16" rx="4" fill="#0f172a"/>
    <path d="M24 40 L32 28 40 40 Z" fill="#fb7185"/>
    <rect x="26" y="30" width="12" height="3" rx="1.5" fill="#22d3ee"/>
  </g>
</svg>

<!-- Example 206 | errl_fest_light_arch_double_01 (fx/env) -->
<svg xmlns="http://www.w3.org/2000/svg" viewBox="0 0 64 64" data-pack="errl_fest" data-cat="fx" data-name="errl_fest_light_arch_double_01">
  <g fill="none">
    <path d="M14 40 C18 28 24 22 32 22s14 6 18 18" stroke="#22d3ee" stroke-width="3" stroke-linecap="round" opacity="0.85"/>
    <path d="M18 40 C22 30 26 26 32 26s10 4 14 14" stroke="#facc15" stroke-width="2" stroke-linecap="round" opacity="0.9"/>
  </g>
</svg>

<!-- Example 207 | errl_fest_rope_curve_high_01 (fx/env) -->
<svg xmlns="http://www.w3.org/2000/svg" viewBox="0 0 64 64" data-pack="errl_fest" data-cat="fx" data-name="errl_fest_rope_curve_high_01">
  <g fill="none">
    <path d="M10 18 C22 28 42 28 54 18" stroke="#e5e7eb" stroke-width="1.5" stroke-linecap="round"/>
  </g>
</svg>

<!-- Example 208 | errl_fest_rope_curve_low_01 (fx/env) -->
<svg xmlns="http://www.w3.org/2000/svg" viewBox="0 0 64 64" data-pack="errl_fest" data-cat="fx" data-name="errl_fest_rope_curve_low_01">
  <g fill="none">
    <path d="M10 30 C22 38 42 38 54 30" stroke="#e5e7eb" stroke-width="1.5" stroke-linecap="round"/>
  </g>
</svg>

<!-- Example 209 | errl_fest_path_marker_ring_double_01 (ui/env) -->
<svg xmlns="http://www.w3.org/2000/svg" viewBox="0 0 64 64" data-pack="errl_fest" data-cat="ui" data-name="errl_fest_path_marker_ring_double_01">
  <g fill="none">
    <ellipse cx="32" cy="44" rx="10" ry="3" fill="#020617"/>
    <ellipse cx="32" cy="44" rx="7" ry="2" fill="#22d3ee" opacity="0.8"/>
    <ellipse cx="32" cy="44" rx="4" ry="1.2" fill="#e0f2fe"/>
  </g>
</svg>

<!-- Example 210 | errl_fest_path_marker_ring_triple_01 (ui/env) -->
<svg xmlns="http://www.w3.org/2000/svg" viewBox="0 0 64 64" data-pack="errl_fest" data-cat="ui" data-name="errl_fest_path_marker_ring_triple_01">
  <g fill="none">
    <ellipse cx="32" cy="44" rx="11" ry="3.2" fill="#020617"/>
    <ellipse cx="32" cy="44" rx="8" ry="2.2" fill="#22d3ee" opacity="0.7"/>
    <ellipse cx="32" cy="44" rx="5" ry="1.4" fill="#facc15" opacity="0.7"/>
  </g>
</svg>

<!-- Example 211 | errl_fest_gate_icon_small_01 (ui) -->
<svg xmlns="http://www.w3.org/2000/svg" viewBox="0 0 64 64" data-pack="errl_fest" data-cat="ui" data-name="errl_fest_gate_icon_small_01">
  <g fill="none">
    <rect x="24" y="26" width="16" height="12" rx="3" fill="#0f172a"/>
    <rect x="26" y="28" width="3" height="8" rx="1.5" fill="#22d3ee"/>
    <rect x="35" y="28" width="3" height="8" rx="1.5" fill="#22d3ee"/>
    <path d="M27.5 28 C30 26 32 26 34.5 28" stroke="#facc15" stroke-width="1.4" stroke-linecap="round"/>
  </g>
</svg>

<!-- Example 212 | errl_fest_fence_corner_01 (env/prop) -->
<svg xmlns="http://www.w3.org/2000/svg" viewBox="0 0 64 64" data-pack="errl_fest" data-cat="env" data-name="errl_fest_fence_corner_01">
  <g fill="none">
    <rect x="18" y="32" width="16" height="3" rx="1.5" fill="#111827"/>
    <rect x="32" y="28" width="3" height="12" rx="1.5" fill="#111827"/>
  </g>
</svg>

<!-- Example 213 | errl_fest_fence_corner_lit_01 (env/fx) -->
<svg xmlns="http://www.w3.org/2000/svg" viewBox="0 0 64 64" data-pack="errl_fest" data-cat="fx" data-name="errl_fest_fence_corner_lit_01">
  <g fill="none">
    <rect x="18" y="32" width="16" height="3" rx="1.5" fill="#111827"/>
    <rect x="32" y="28" width="3" height="12" rx="1.5" fill="#111827"/>
    <circle cx="20" cy="33.5" r="0.9" fill="#22d3ee"/>
    <circle cx="26" cy="33.5" r="0.9" fill="#facc15"/>
    <circle cx="32" cy="30" r="0.9" fill="#22d3ee"/>
    <circle cx="32" cy="36" r="0.9" fill="#a855f7"/>
  </g>
</svg>

<!-- Example 214 | errl_fest_small_stage_front_risers_01 (env/prop) -->
<svg xmlns="http://www.w3.org/2000/svg" viewBox="0 0 64 64" data-pack="errl_fest" data-cat="env" data-name="errl_fest_small_stage_front_risers_01">
  <g fill="none">
    <rect x="18" y="38" width="28" height="4" rx="2" fill="#020617"/>
    <rect x="20" y="36" width="6" height="2" rx="1" fill="#111827"/>
    <rect x="26" y="36" width="6" height="2" rx="1" fill="#111827"/>
    <rect x="32" y="36" width="6" height="2" rx="1" fill="#111827"/>
  </g>
</svg>

<!-- Example 215 | errl_fest_chill_canopy_icon_01 (ui/env) -->
<svg xmlns="http://www.w3.org/2000/svg" viewBox="0 0 64 64" data-pack="errl_fest" data-cat="ui" data-name="errl_fest_chill_canopy_icon_01">
  <g fill="none">
    <rect x="22" y="28" width="20" height="10" rx="3" fill="#0f172a"/>
    <path d="M24 28 L32 24 40 28 Z" fill="#22d3ee"/>
  </g>
</svg>

<!-- Example 216 | errl_fest_small_spot_box_01 (fx/prop) -->
<svg xmlns="http://www.w3.org/2000/svg" viewBox="0 0 64 64" data-pack="errl_fest" data-cat="fx" data-name="errl_fest_small_spot_box_01">
  <g fill="none">
    <rect x="26" y="36" width="12" height="5" rx="2" fill="#020617"/>
    <circle cx="30" cy="38.5" r="1.4" fill="#22d3ee"/>
    <circle cx="34" cy="38.5" r="1.4" fill="#facc15"/>
  </g>
</svg>

<!-- Example 217 | errl_fest_string_lights_short_01 (fx) -->
<svg xmlns="http://www.w3.org/2000/svg" viewBox="0 0 64 64" data-pack="errl_fest" data-cat="fx" data-name="errl_fest_string_lights_short_01">
  <g fill="none">
    <path d="M18 24 C24 28 40 28 46 24" stroke="#e5e7eb" stroke-width="1.4" stroke-linecap="round"/>
    <circle cx="20" cy="26" r="1.2" fill="#facc15"/>
    <circle cx="27" cy="27" r="1.2" fill="#22d3ee"/>
    <circle cx="34" cy="27" r="1.2" fill="#a855f7"/>
    <circle cx="41" cy="26" r="1.2" fill="#fb7185"/>
  </g>
</svg>

<!-- Example 218 | errl_fest_string_lights_short_neon_01 (fx) -->
<svg xmlns="http://www.w3.org/2000/svg" viewBox="0 0 64 64" data-pack="errl_fest" data-cat="fx" data-name="errl_fest_string_lights_short_neon_01">
  <g fill="none">
    <path d="M18 24 C24 30 40 30 46 24" stroke="#22d3ee" stroke-width="1.6" stroke-linecap="round" opacity="0.9"/>
    <circle cx="22" cy="26" r="1.4" fill="#22d3ee"/>
    <circle cx="30" cy="28" r="1.4" fill="#a855f7"/>
    <circle cx="38" cy="26" r="1.4" fill="#facc15"/>
  </g>
</svg>

<!-- Example 219 | errl_fest_crowd_wave_fx_01 (fx/env) -->
<svg xmlns="http://www.w3.org/2000/svg" viewBox="0 0 64 64" data-pack="errl_fest" data-cat="fx" data-name="errl_fest_crowd_wave_fx_01">
  <g fill="none">
    <path d="M10 40 C14 34 20 32 26 32s12 2 16 2 10-1 12-2c2 3 4 6 4 10H10z" fill="#020617" opacity="0.9"/>
    <path d="M14 38 C18 35 22 34 26 34              M26 38 C30 35 34 34 38 34" stroke="#111827" stroke-width="1.4" stroke-linecap="round"/>
  </g>
</svg>

<!-- Example 220 | errl_fest_crowd_wave_fx_neon_01 (fx/env) -->
<svg xmlns="http://www.w3.org/2000/svg" viewBox="0 0 64 64" data-pack="errl_fest" data-cat="fx" data-name="errl_fest_crowd_wave_fx_neon_01">
  <g fill="none">
    <path d="M10 40 C14 34 20 32 26 32s12 2 16 2 10-1 12-2c2 3 4 6 4 10H10z" fill="#020617" opacity="0.9"/>
    <path d="M14 38 C18 35 22 34 26 34              M26 38 C30 35 34 34 38 34" stroke="#22d3ee" stroke-width="1.4" stroke-linecap="round" opacity="0.8"/>
  </g>
</svg></svg>