<svg xmlns="http://www.w3.org/2000/svg" viewBox="0 0 24 24" width="24" height="24" id="icon-ss84jko3j"><!-- Example 161 | errl_fest_wayfinder_pole_01 (ui/env) -->
<svg xmlns="http://www.w3.org/2000/svg" viewBox="0 0 64 64" data-pack="errl_fest" data-cat="ui" data-name="errl_fest_wayfinder_pole_01">
  <g fill="none">
    <rect x="30" y="22" width="4" height="22" rx="1.6" fill="#111827"/>
    <rect x="26" y="24" width="12" height="4" rx="2" fill="#22d3ee"/>
    <rect x="28" y="30" width="8" height="3" rx="1.5" fill="#0f172a"/>
    <ellipse cx="32" cy="48" rx="7.5" ry="2.4" fill="#020617" opacity="0.5"/>
  </g>
</svg>

<!-- Example 162 | errl_fest_chill_pillow_cluster_01 (prop/env) -->
<svg xmlns="http://www.w3.org/2000/svg" viewBox="0 0 64 64" data-pack="errl_fest" data-cat="prop" data-name="errl_fest_chill_pillow_cluster_01">
  <g fill="none">
    <rect x="22" y="36" width="8" height="4" rx="1.5" fill="#fb7185"/>
    <rect x="30" y="34" width="9" height="4.2" rx="1.6" fill="#22d3ee"/>
    <rect x="36" y="37" width="8" height="4" rx="1.5" fill="#a855f7"/>
    <ellipse cx="32" cy="44" rx="14" ry="3" fill="#020617" opacity="0.4"/>
  </g>
</svg>

<!-- Example 163 | errl_fest_lantern_path_pair_01 (fx/env) -->
<svg xmlns="http://www.w3.org/2000/svg" viewBox="0 0 64 64" data-pack="errl_fest" data-cat="fx" data-name="errl_fest_lantern_path_pair_01">
  <g fill="none">
    <!-- left -->
    <rect x="20" y="30" width="2.6" height="10" rx="1.3" fill="#0f172a"/>
    <rect x="18.4" y="27" width="6" height="4" rx="2" fill="#111827"/>
    <circle cx="21.4" cy="29" r="1.4" fill="#facc15"/>
    <!-- right -->
    <rect x="41" y="30" width="2.6" height="10" rx="1.3" fill="#0f172a"/>
    <rect x="39.4" y="27" width="6" height="4" rx="2" fill="#111827"/>
    <circle cx="42.4" cy="29" r="1.4" fill="#22d3ee"/>
  </g>
</svg>

<!-- Example 164 | errl_fest_tree_pole_combo_01 (env/prop) -->
<svg xmlns="http://www.w3.org/2000/svg" viewBox="0 0 64 64" data-pack="errl_fest" data-cat="env" data-name="errl_fest_tree_pole_combo_01">
  <g fill="none">
    <!-- tree trunk -->
    <rect x="18" y="28" width="4" height="16" rx="2" fill="#78350f"/>
    <circle cx="20" cy="26" r="5.5" fill="#166534"/>
    <!-- light pole -->
    <rect x="40" y="26" width="3" height="18" rx="1.5" fill="#e5e7eb"/>
    <rect x="38" y="24" width="7" height="3" rx="1.5" fill="#111827"/>
    <circle cx="41.5" cy="25.5" r="1.3" fill="#facc15"/>
  </g>
</svg>

<!-- Example 165 | errl_fest_stage_floor_pattern_01 (env) -->
<svg xmlns="http://www.w3.org/2000/svg" viewBox="0 0 64 64" data-pack="errl_fest" data-cat="env" data-name="errl_fest_stage_floor_pattern_01">
  <g fill="none">
    <rect x="14" y="40" width="36" height="6" rx="2" fill="#020617"/>
    <rect x="16" y="41" width="6" height="4" fill="#111827"/>
    <rect x="24" y="41" width="6" height="4" fill="#111827"/>
    <rect x="32" y="41" width="6" height="4" fill="#111827"/>
    <rect x="40" y="41" width="6" height="4" fill="#111827"/>
  </g>
</svg>

<!-- Example 166 | errl_fest_deco_column_angled_01 (env/prop) -->
<svg xmlns="http://www.w3.org/2000/svg" viewBox="0 0 64 64" data-pack="errl_fest" data-cat="env" data-name="errl_fest_deco_column_angled_01">
  <g fill="none">
    <path d="M26 22 L34 22 30 44 22 44 Z" fill="#111827"/>
    <rect x="23" y="20" width="8" height="3" rx="1.5" fill="#22d3ee"/>
    <ellipse cx="26" cy="46" rx="7" ry="2.2" fill="#020617" opacity="0.5"/>
  </g>
</svg>

<!-- Example 167 | errl_fest_merch_grid_wall_01 (env/ui) -->
<svg xmlns="http://www.w3.org/2000/svg" viewBox="0 0 64 64" data-pack="errl_fest" data-cat="env" data-name="errl_fest_merch_grid_wall_01">
  <g fill="none">
    <rect x="18" y="18" width="28" height="24" rx="2" fill="#020617"/>
    <path d="M22 20 H42 M22 26 H42 M22 32 H42 M22 38 H42              M26 20 V42 M32 20 V42 M38 20 V42" stroke="#111827" stroke-width="1.2" stroke-linecap="round"/>
  </g>
</svg>

<!-- Example 168 | errl_fest_poster_strip_01 (env/ui) -->
<svg xmlns="http://www.w3.org/2000/svg" viewBox="0 0 64 64" data-pack="errl_fest" data-cat="env" data-name="errl_fest_poster_strip_01">
  <g fill="none">
    <rect x="16" y="20" width="32" height="6" rx="2" fill="#111827"/>
    <rect x="18" y="21" width="4" height="4" rx="1" fill="#22d3ee"/>
    <rect x="24" y="21" width="4" height="4" rx="1" fill="#fb7185"/>
    <rect x="30" y="21" width="4" height="4" rx="1" fill="#facc15"/>
    <rect x="36" y="21" width="4" height="4" rx="1" fill="#22d3ee"/>
    <rect x="42" y="21" width="4" height="4" rx="1" fill="#a855f7"/>
  </g>
</svg>

<!-- Example 169 | errl_fest_small_bar_sign_01 (ui/env) -->
<svg xmlns="http://www.w3.org/2000/svg" viewBox="0 0 64 64" data-pack="errl_fest" data-cat="ui" data-name="errl_fest_small_bar_sign_01">
  <g fill="none">
    <rect x="22" y="26" width="20" height="8" rx="3" fill="#0f172a"/>
    <rect x="24" y="28" width="16" height="4" rx="2" fill="#22d3ee"/>
    <circle cx="26" cy="30" r="1.2" fill="#0f172a"/>
    <circle cx="38" cy="30" r="1.2" fill="#0f172a"/>
  </g>
</svg>

<!-- Example 170 | errl_fest_small_water_point_01 (ui/env) -->
<svg xmlns="http://www.w3.org/2000/svg" viewBox="0 0 64 64" data-pack="errl_fest" data-cat="ui" data-name="errl_fest_small_water_point_01">
  <g fill="none">
    <rect x="24" y="26" width="16" height="10" rx="3" fill="#0f172a"/>
    <circle cx="32" cy="32" r="3" fill="#22d3ee"/>
    <path d="M32 29 C30.8 30.5 30 32 30 33a2 2 0 0 0 4 0c0-1-0.8-2.5-2-4z" fill="#0ea5e9"/>
  </g>
</svg>

<!-- Example 171 | errl_fest_tower_light_duo_01 (fx/prop) -->
<svg xmlns="http://www.w3.org/2000/svg" viewBox="0 0 64 64" data-pack="errl_fest" data-cat="fx" data-name="errl_fest_tower_light_duo_01">
  <g fill="none">
    <!-- base tower -->
    <rect x="30" y="26" width="4" height="20" rx="2" fill="#111827"/>
    <!-- two heads -->
    <rect x="26" y="22" width="6" height="4" rx="1.5" fill="#020617"/>
    <rect x="32" y="22" width="6" height="4" rx="1.5" fill="#020617"/>
    <circle cx="29" cy="24" r="1.2" fill="#22d3ee"/>
    <circle cx="35" cy="24" r="1.2" fill="#facc15"/>
  </g>
</svg>

<!-- Example 172 | errl_fest_queue_snake_01 (env/ui) -->
<svg xmlns="http://www.w3.org/2000/svg" viewBox="0 0 64 64" data-pack="errl_fest" data-cat="env" data-name="errl_fest_queue_snake_01">
  <g fill="none">
    <path d="M14 44 C20 40 26 40 32 42 C38 44 44 44 50 40" stroke="#4b5563" stroke-width="2.2" stroke-linecap="round"/>
  </g>
</svg>

<!-- Example 173 | errl_fest_queue_snake_02 (env/ui) -->
<svg xmlns="http://www.w3.org/2000/svg" viewBox="0 0 64 64" data-pack="errl_fest" data-cat="env" data-name="errl_fest_queue_snake_02">
  <g fill="none">
    <path d="M14 42 C20 38 28 38 34 40 C40 42 46 42 52 38" stroke="#22d3ee" stroke-width="2.2" stroke-linecap="round" opacity="0.8"/>
  </g>
</svg>

<!-- Example 174 | errl_fest_backdrop_mesh_01 (fx/env) -->
<svg xmlns="http://www.w3.org/2000/svg" viewBox="0 0 64 64" data-pack="errl_fest" data-cat="fx" data-name="errl_fest_backdrop_mesh_01">
  <g fill="none">
    <rect x="16" y="18" width="32" height="20" rx="2" fill="#020617"/>
    <path d="M18 20 L46 36 M18 24 L46 40 M18 28 L46 44              M22 18 L38 38 M18 32 L42 18" stroke="#111827" stroke-width="1.2" stroke-linecap="round" opacity="0.7"/>
  </g>
</svg>

<!-- Example 175 | errl_fest_pylon_round_top_01 (env/ui) -->
<svg xmlns="http://www.w3.org/2000/svg" viewBox="0 0 64 64" data-pack="errl_fest" data-cat="env" data-name="errl_fest_pylon_round_top_01">
  <g fill="none">
    <rect x="28" y="26" width="8" height="18" rx="2" fill="#111827"/>
    <circle cx="32" cy="24" r="3" fill="#22d3ee"/>
    <ellipse cx="32" cy="46" rx="8" ry="2.4" fill="#020617" opacity="0.45"/>
  </g>
</svg>

<!-- Example 176 | errl_fest_pylon_round_top_glow_01 (fx/ui) -->
<svg xmlns="http://www.w3.org/2000/svg" viewBox="0 0 64 64" data-pack="errl_fest" data-cat="fx" data-name="errl_fest_pylon_round_top_glow_01">
  <g fill="none">
    <rect x="28" y="26" width="8" height="18" rx="2" fill="#111827"/>
    <circle cx="32" cy="24" r="3" fill="#facc15"/>
    <circle cx="32" cy="24" r="6" fill="#facc15" opacity="0.18"/>
  </g>
</svg>

<!-- Example 177 | errl_fest_barrel_seating_01 (env/prop) -->
<svg xmlns="http://www.w3.org/2000/svg" viewBox="0 0 64 64" data-pack="errl_fest" data-cat="env" data-name="errl_fest_barrel_seating_01">
  <g fill="none">
    <ellipse cx="24" cy="40" rx="5.5" ry="2" fill="#0f172a"/>
    <rect x="20" y="40" width="8" height="4" rx="2" fill="#111827"/>
    <ellipse cx="40" cy="40" rx="5.5" ry="2" fill="#0f172a"/>
    <rect x="36" y="40" width="8" height="4" rx="2" fill="#111827"/>
  </g>
</svg>

<!-- Example 178 | errl_fest_path_marker_dot_row_01 (ui/env) -->
<svg xmlns="http://www.w3.org/2000/svg" viewBox="0 0 64 64" data-pack="errl_fest" data-cat="ui" data-name="errl_fest_path_marker_dot_row_01">
  <g fill="none">
    <circle cx="20" cy="44" r="1.4" fill="#22d3ee"/>
    <circle cx="26" cy="44" r="1.4" fill="#22d3ee"/>
    <circle cx="32" cy="44" r="1.4" fill="#22d3ee"/>
    <circle cx="38" cy="44" r="1.4" fill="#22d3ee"/>
    <circle cx="44" cy="44" r="1.4" fill="#22d3ee"/>
  </g>
</svg>

<!-- Example 179 | errl_fest_path_marker_dot_row_alt_01 (ui/env) -->
<svg xmlns="http://www.w3.org/2000/svg" viewBox="0 0 64 64" data-pack="errl_fest" data-cat="ui" data-name="errl_fest_path_marker_dot_row_alt_01">
  <g fill="none">
    <circle cx="20" cy="44" r="1.4" fill="#fb7185"/>
    <circle cx="26" cy="44" r="1.4" fill="#22d3ee"/>
    <circle cx="32" cy="44" r="1.4" fill="#facc15"/>
    <circle cx="38" cy="44" r="1.4" fill="#22d3ee"/>
    <circle cx="44" cy="44" r="1.4" fill="#a855f7"/>
  </g>
</svg>

<!-- Example 180 | errl_fest_tent_flag_cluster_01 (fx/env) -->
<svg xmlns="http://www.w3.org/2000/svg" viewBox="0 0 64 64" data-pack="errl_fest" data-cat="fx" data-name="errl_fest_tent_flag_cluster_01">
  <g fill="none">
    <path d="M16 26 C24 22 40 22 48 26" stroke="#e5e7eb" stroke-width="1.4" stroke-linecap="round"/>
    <path d="M18 27 L22 31 L26 27 Z" fill="#22d3ee"/>
    <path d="M28 25 L32 29 L36 25 Z" fill="#fb7185"/>
    <path d="M38 27 L42 31 L46 27 Z" fill="#facc15"/>
  </g>
</svg></svg>