<svg xmlns="http://www.w3.org/2000/svg" viewBox="0 0 64 64">

  <!-- Neon purple base: #d946ef -->

  <!-- 1: Tiny table -->
  <symbol id="errl_prop_table_01" viewBox="0 0 64 64">
    <rect x="10" y="22" width="44" height="8" rx="3" fill="#0f172a"/>
    <rect x="16" y="30" width="4" height="16" rx="1" fill="#334155"/>
    <rect x="30" y="30" width="4" height="16" rx="1" fill="#334155"/>
    <rect x="44" y="30" width="4" height="16" rx="1" fill="#334155"/>
  </symbol>

  <!-- 2: Low platform -->
  <symbol id="errl_prop_platform_01" viewBox="0 0 64 64">
    <rect x="8" y="34" width="48" height="10" rx="3" fill="#020617"/>
    <rect x="10" y="32" width="44" height="6" rx="2" fill="#1e293b"/>
  </symbol>

  <!-- 3: Round rug -->
  <symbol id="errl_env_rug_round_01" viewBox="0 0 64 64">
    <ellipse cx="32" cy="40" rx="22" ry="10" fill="#0f172a"/>
    <ellipse cx="32" cy="40" rx="18" ry="8" fill="#1e293b"/>
    <ellipse cx="32" cy="40" rx="12" ry="5" fill="#d946ef" opacity="0.3"/>
  </symbol>

  <!-- 4: Beanbag -->
  <symbol id="errl_prop_beanbag_01" viewBox="0 0 64 64">
    <path d="M14 40q2-12 10-18t16-2q8 4 10 20-2 6-8 8H22q-8-2-8-8z" fill="#d946ef"/>
    <path d="M18 38q2-8 8-12t12-1" fill="none" stroke="#f5d0fe" stroke-width="2" stroke-linecap="round"/>
  </symbol>

  <!-- 5: Crate -->
  <symbol id="errl_prop_crate_01" viewBox="0 0 64 64">
    <rect x="14" y="24" width="36" height="24" rx="2" fill="#0f172a"/>
    <rect x="16" y="26" width="32" height="20" rx="1" fill="#1e293b"/>
    <path d="M16 32h32M16 38h32" stroke="#334155" stroke-width="2"/>
  </symbol>

  <!-- 6: Tiny shelf -->
  <symbol id="errl_prop_shelf_01" viewBox="0 0 64 64">
    <rect x="10" y="22" width="44" height="4" rx="1" fill="#020617"/>
    <rect x="10" y="32" width="44" height="4" rx="1" fill="#020617"/>
    <rect x="10" y="42" width="44" height="4" rx="1" fill="#020617"/>
    <rect x="12" y="22" width="2" height="24" fill="#1e293b"/>
    <rect x="50" y="22" width="2" height="24" fill="#1e293b"/>
  </symbol>

  <!-- 7: Step block -->
  <symbol id="errl_prop_block_01" viewBox="0 0 64 64">
    <rect x="12" y="32" width="20" height="12" fill="#0f172a"/>
    <rect x="24" y="26" width="20" height="10" fill="#1e293b"/>
  </symbol>

  <!-- 8: Tiny podium -->
  <symbol id="errl_prop_podium_01" viewBox="0 0 64 64">
    <rect x="20" y="30" width="24" height="16" rx="2" fill="#0f172a"/>
    <rect x="22" y="28" width="20" height="4" rx="2" fill="#d946ef"/>
  </symbol>

  <!-- 9: Couch blob -->
  <symbol id="errl_prop_couch_01" viewBox="0 0 64 64">
    <path d="M10 36q0-8 8-8h28q8 0 8 8v6q0 4-4 4H14q-4 0-4-4z" fill="#334155"/>
    <path d="M14 30q0-6 6-6M44 30q0-6-6-6" fill="none" stroke="#64748b" stroke-width="2" stroke-linecap="round"/>
  </symbol>

  <!-- 10: Tiny side table -->
  <symbol id="errl_prop_side_table_01" viewBox="0 0 64 64">
    <rect x="24" y="26" width="16" height="4" rx="1" fill="#0f172a"/>
    <rect x="26" y="30" width="2" height="12" fill="#1e293b"/>
    <rect x="36" y="30" width="2" height="12" fill="#1e293b"/>
  </symbol>

  <!-- 11: CRT TV -->
  <symbol id="errl_screen_tv_01" viewBox="0 0 64 64">
    <rect x="10" y="18" width="44" height="28" rx="4" fill="#020617"/>
    <rect x="14" y="22" width="30" height="20" rx="2" fill="#0b1120"/>
    <rect x="46" y="22" width="6" height="6" rx="2" fill="#1e293b"/>
    <circle cx="49" cy="34" r="2" fill="#d946ef"/>
    <path d="M16 24h26" stroke="#d946ef" stroke-width="1" opacity="0.4"/>
  </symbol>

  <!-- 12: Rounded TV -->
  <symbol id="errl_screen_tv_02" viewBox="0 0 64 64">
    <rect x="12" y="20" width="40" height="26" rx="10" fill="#020617"/>
    <rect x="16" y="24" width="32" height="18" rx="8" fill="#0b1120"/>
  </symbol>

  <!-- 13: Overhead projector -->
  <symbol id="errl_prop_projector_01" viewBox="0 0 64 64">
    <rect x="18" y="32" width="28" height="10" rx="2" fill="#020617"/>
    <rect x="24" y="26" width="16" height="8" rx="2" fill="#1e293b"/>
    <rect x="30" y="18" width="4" height="10" fill="#1e293b"/>
    <rect x="28" y="14" width="8" height="4" rx="1" fill="#d946ef"/>
    <polygon points="46,34 60,40 46,46" fill="#d946ef" opacity="0.3"/>
  </symbol>

  <!-- 14: Tiny projector box -->
  <symbol id="errl_prop_projector_02" viewBox="0 0 64 64">
    <rect x="18" y="30" width="26" height="12" rx="3" fill="#020617"/>
    <circle cx="24" cy="36" r="3" fill="#d946ef"/>
    <rect x="32" y="34" width="6" height="4" rx="1" fill="#1e293b"/>
    <polygon points="44,36 56,32 56,40" fill="#d946ef" opacity="0.25"/>
  </symbol>

  <!-- 15: Hanging screen -->
  <symbol id="errl_screen_hanging_01" viewBox="0 0 64 64">
    <line x1="16" y1="16" x2="48" y2="16" stroke="#64748b" stroke-width="2"/>
    <rect x="12" y="18" width="40" height="24" rx="2" fill="#0b1120"/>
    <line x1="12" y1="18" x2="32" y2="10" stroke="#334155" stroke-width="1"/>
    <line x1="52" y1="18" x2="32" y2="10" stroke="#334155" stroke-width="1"/>
  </symbol>

  <!-- 16: Tablet -->
  <symbol id="errl_screen_tablet_01" viewBox="0 0 64 64">
    <rect x="16" y="18" width="32" height="28" rx="4" fill="#020617"/>
    <rect x="18" y="20" width="28" height="24" rx="3" fill="#0b1120"/>
    <circle cx="32" cy="46" r="1" fill="#1e293b"/>
  </symbol>

  <!-- 17: Monitor on stand -->
  <symbol id="errl_screen_monitor_01" viewBox="0 0 64 64">
    <rect x="14" y="18" width="36" height="22" rx="3" fill="#020617"/>
    <rect x="16" y="20" width="32" height="18" rx="2" fill="#0b1120"/>
    <rect x="28" y="40" width="8" height="4" fill="#1e293b"/>
    <rect x="24" y="44" width="16" height="2" rx="1" fill="#1e293b"/>
  </symbol>

  <!-- 18: Tiny projector ceiling mount -->
  <symbol id="errl_prop_projector_ceiling_01" viewBox="0 0 64 64">
    <rect x="28" y="10" width="8" height="8" rx="2" fill="#1e293b"/>
    <rect x="22" y="20" width="20" height="10" rx="2" fill="#020617"/>
    <circle cx="28" cy="25" r="2" fill="#d946ef"/>
    <polygon points="42,24 56,30 42,36" fill="#d946ef" opacity="0.25"/>
  </symbol>

  <!-- 19: Tiny VHS player -->
  <symbol id="errl_prop_vhs_01" viewBox="0 0 64 64">
    <rect x="18" y="30" width="28" height="10" rx="2" fill="#020617"/>
    <rect x="20" y="32" width="10" height="6" fill="#0b1120"/>
    <rect x="32" y="32" width="12" height="3" fill="#1e293b"/>
  </symbol>

  <!-- 20: Polaroid frame -->
  <symbol id="errl_frame_polaroid_01" viewBox="0 0 64 64">
    <rect x="14" y="14" width="36" height="36" rx="2" fill="#0f172a"/>
    <rect x="16" y="16" width="32" height="26" fill="#020617"/>
    <rect x="16" y="42" width="32" height="6" fill="#111827"/>
  </symbol>

  <!-- 21: Mug -->
  <symbol id="errl_prop_mug_01" viewBox="0 0 64 64">
    <rect x="20" y="26" width="16" height="16" rx="3" fill="#0f172a"/>
    <rect x="34" y="30" width="6" height="8" rx="3" fill="#1e293b"/>
    <path d="M24 24c0-2 2-3 4-3s4 1 4 3" stroke="#d946ef" stroke-width="2" stroke-linecap="round"/>
  </symbol>

  <!-- 22: Takeout cup -->
  <symbol id="errl_prop_cup_01" viewBox="0 0 64 64">
    <polygon points="26,22 38,22 36,44 28,44" fill="#0f172a"/>
    <rect x="24" y="18" width="16" height="4" rx="1" fill="#1e293b"/>
    <rect x="30" y="14" width="2" height="4" fill="#d946ef"/>
  </symbol>

  <!-- 23: Plate with blob -->
  <symbol id="errl_prop_plate_blob_01" viewBox="0 0 64 64">
    <ellipse cx="32" cy="38" rx="18" ry="6" fill="#0f172a"/>
    <path d="M24 34q4-6 10-4t6 6-4 6-8 0-4-8z" fill="#d946ef"/>
  </symbol>

  <!-- 24: Slice of pizza -->
  <symbol id="errl_prop_pizza_01" viewBox="0 0 64 64">
    <polygon points="20,20 44,20 32,44" fill="#d946ef"/>
    <path d="M20 20h24" stroke="#581c87" stroke-width="3" stroke-linecap="round"/>
    <circle cx="28" cy="26" r="2" fill="#4c1d95"/>
    <circle cx="36" cy="30" r="2" fill="#4c1d95"/>
  </symbol>

  <!-- 25: Cookie -->
  <symbol id="errl_prop_cookie_01" viewBox="0 0 64 64">
    <circle cx="32" cy="34" r="10" fill="#581c87"/>
    <circle cx="28" cy="30" r="1.5" fill="#020617"/>
    <circle cx="36" cy="32" r="1.5" fill="#020617"/>
    <circle cx="30" cy="38" r="1.5" fill="#020617"/>
  </symbol>

  <!-- 26: Candy wrapper -->
  <symbol id="errl_prop_candy_01" viewBox="0 0 64 64">
    <rect x="24" y="28" width="16" height="8" rx="3" fill="#d946ef"/>
    <polygon points="24,32 18,28 18,36" fill="#f97316"/>
    <polygon points="40,32 46,28 46,36" fill="#f97316"/>
  </symbol>

  <!-- 27: Bottle -->
  <symbol id="errl_prop_bottle_01" viewBox="0 0 64 64">
    <rect x="30" y="16" width="4" height="6" rx="1" fill="#1e293b"/>
    <rect x="26" y="22" width="12" height="18" rx="4" fill="#0f172a"/>
    <rect x="28" y="24" width="8" height="12" rx="3" fill="#d946ef" opacity="0.5"/>
  </symbol>

  <!-- 28: Little box -->
  <symbol id="errl_prop_box_01" viewBox="0 0 64 64">
    <rect x="22" y="26" width="20" height="16" rx="2" fill="#0f172a"/>
    <path d="M22 30h20" stroke="#1e293b" stroke-width="2"/>
  </symbol>

  <!-- 29: Candle -->
  <symbol id="errl_prop_candle_01" viewBox="0 0 64 64">
    <rect x="28" y="26" width="8" height="16" rx="2" fill="#e5e7eb"/>
    <path d="M32 20c-1 1-2 2-2 3s1.5 2 2 2 2-1 2-2-1-2-2-3z" fill="#d946ef"/>
  </symbol>

  <!-- 30: Bowl -->
  <symbol id="errl_prop_bowl_01" viewBox="0 0 64 64">
    <path d="M20 30h24q-1 10-12 10T20 30z" fill="#0f172a"/>
    <path d="M20 30h24" stroke="#1e293b" stroke-width="2"/>
  </symbol>

  <!-- 31: Potted plant -->
  <symbol id="errl_env_plant_01" viewBox="0 0 64 64">
    <rect x="26" y="32" width="12" height="10" rx="2" fill="#0f172a"/>
    <path d="M32 32v-8" stroke="#d946ef" stroke-width="2" stroke-linecap="round"/>
    <path d="M32 24c-3-4-6-6-8-4 0 3 3 5 8 4z" fill="#d946ef"/>
    <path d="M32 24c3-4 6-6 8-4 0 3-3 5-8 4z" fill="#f5d0fe"/>
  </symbol>

  <!-- 32: Tall plant -->
  <symbol id="errl_env_plant_02" viewBox="0 0 64 64">
    <rect x="30" y="32" width="4" height="12" fill="#4c1d95"/>
    <circle cx="32" cy="26" r="6" fill="#d946ef"/>
  </symbol>

  <!-- 33: Hanging vine -->
  <symbol id="errl_env_vine_01" viewBox="0 0 64 64">
    <path d="M16 10q12 8 8 20t10 16" fill="none" stroke="#d946ef" stroke-width="2" stroke-linecap="round"/>
    <circle cx="20" cy="14" r="2" fill="#d946ef"/>
    <circle cx="26" cy="20" r="2" fill="#f5d0fe"/>
  </symbol>

  <!-- 34: Bush blob -->
  <symbol id="errl_env_bush_01" viewBox="0 0 64 64">
    <circle cx="24" cy="36" r="8" fill="#4c1d95"/>
    <circle cx="32" cy="34" r="9" fill="#d946ef"/>
    <circle cx="40" cy="36" r="8" fill="#581c87"/>
  </symbol>

  <!-- 35: Cloud -->
  <symbol id="errl_env_cloud_01" viewBox="0 0 64 64">
    <circle cx="24" cy="26" r="6" fill="#e5e7eb"/>
    <circle cx="32" cy="24" r="7" fill="#e5e7eb"/>
    <circle cx="40" cy="26" r="6" fill="#e5e7eb"/>
    <rect x="22" y="26" width="20" height="6" rx="3" fill="#e5e7eb"/>
  </symbol>

  <!-- 36: Star cluster -->
  <symbol id="errl_fx_stars_01" viewBox="0 0 64 64">
    <path d="M20 20l1.5 3 3 1.5-3 1.5-1.5 3-1.5-3-3-1.5 3-1.5z" fill="#d946ef"/>
    <path d="M36 14l1 2 2 1-2 1-1 2-1-2-2-1 2-1z" fill="#f5d0fe"/>
    <circle cx="44" cy="26" r="1.5" fill="#d946ef"/>
  </symbol>

  <!-- 37: Moon -->
  <symbol id="errl_env_moon_01" viewBox="0 0 64 64">
    <circle cx="28" cy="24" r="8" fill="#e5e7eb"/>
    <circle cx="31" cy="22" r="7" fill="#0f172a"/>
  </symbol>

  <!-- 38: Tiny mountain -->
  <symbol id="errl_env_mountain_01" viewBox="0 0 64 64">
    <polygon points="16,40 32,16 48,40" fill="#0f172a"/>
    <polygon points="28,24 32,16 36,24" fill="#e5e7eb"/>
  </symbol>

  <!-- 39: Sparkle -->
  <symbol id="errl_fx_sparkle_01" viewBox="0 0 64 64">
    <path d="M32 18l3 7 7 3-7 3-3 7-3-7-7-3 7-3z" fill="#d946ef"/>
  </symbol>

  <!-- 40: Floating rock -->
  <symbol id="errl_env_rock_01" viewBox="0 0 64 64">
    <path d="M20 34q4-8 12-10t12 8l-4 10H24z" fill="#1f2933"/>
  </symbol>

  <!-- 41: Top drip -->
  <symbol id="errl_goo_drip_top_01" viewBox="0 0 64 64">
    <path d="M10 18q6-6 12 0t12 0 12 0 8-6v6q0 8-8 8-6 0-8-4t-4 4-8 4-8-8z" fill="#d946ef"/>
  </symbol>

  <!-- 42: Side drip -->
  <symbol id="errl_goo_drip_side_01" viewBox="0 0 64 64">
    <path d="M18 12q8 4 8 12t-4 10-4 8-4 4v-38z" fill="#d946ef"/>
  </symbol>

  <!-- 43: Puddle -->
  <symbol id="errl_goo_puddle_01" viewBox="0 0 64 64">
    <ellipse cx="32" cy="40" rx="18" ry="6" fill="#d946ef"/>
    <ellipse cx="26" cy="38" rx="6" ry="2" fill="#f5d0fe" opacity="0.5"/>
  </symbol>

  <!-- 44: Big splat -->
  <symbol id="errl_goo_splat_01" viewBox="0 0 64 64">
    <path d="M20 34q-4-6 2-10t10-4 10 4 2 10-6 8-6-2-6 2-6-8z" fill="#d946ef"/>
  </symbol>

  <!-- 45: Droplet -->
  <symbol id="errl_goo_droplet_01" viewBox="0 0 64 64">
    <path d="M32 18q-6 8-6 14a6 6 0 0012 0q0-6-6-14z" fill="#d946ef"/>
  </symbol>

  <!-- 46: Double drip -->
  <symbol id="errl_goo_drip_double_01" viewBox="0 0 64 64">
    <path d="M14 20h36q0 6-4 10t-6 0-4 6-4 6-6-4-8-18z" fill="#d946ef"/>
  </symbol>

  <!-- 47: Goo ring -->
  <symbol id="errl_goo_ring_01" viewBox="0 0 64 64">
    <ellipse cx="32" cy="36" rx="18" ry="8" fill="#d946ef"/>
    <ellipse cx="32" cy="36" rx="10" ry="4" fill="#0f172a"/>
  </symbol>

  <!-- 48: Splash arc -->
  <symbol id="errl_goo_splash_01" viewBox="0 0 64 64">
    <path d="M16 40q0-10 8-14t16 0 8 14" fill="none" stroke="#d946ef" stroke-width="4" stroke-linecap="round"/>
  </symbol>

  <!-- 49: Tiny blob -->
  <symbol id="errl_goo_blob_01" viewBox="0 0 64 64">
    <path d="M24 34q0-6 8-8t10 4-2 10-10 4-6-10z" fill="#d946ef"/>
  </symbol>

  <!-- 50: Goo trail -->
  <symbol id="errl_goo_trail_01" viewBox="0 0 64 64">
    <path d="M16 28q6-8 14-4t14 0 8-4" fill="none" stroke="#d946ef" stroke-width="3" stroke-linecap="round"/>
  </symbol>

  <!-- 51: Speech bubble 1 -->
  <symbol id="errl_ui_bubble_01" viewBox="0 0 64 64">
    <rect x="14" y="18" width="36" height="20" rx="6" fill="#020617" stroke="#d946ef" stroke-width="2"/>
    <polygon points="22,38 26,38 22,44" fill="#020617" stroke="#d946ef" stroke-width="2"/>
  </symbol>

  <!-- 52: Speech bubble 2 -->
  <symbol id="errl_ui_bubble_02" viewBox="0 0 64 64">
    <rect x="14" y="22" width="36" height="16" rx="4" fill="#020617" stroke="#d946ef" stroke-width="2"/>
    <polygon points="40,38 44,38 40,44" fill="#020617" stroke="#d946ef" stroke-width="2"/>
  </symbol>

  <!-- 53: Thought bubble -->
  <symbol id="errl_ui_thought_01" viewBox="0 0 64 64">
    <circle cx="26" cy="24" r="6" fill="#020617" stroke="#e5e7eb" stroke-width="2"/>
    <circle cx="36" cy="24" r="7" fill="#020617" stroke="#e5e7eb" stroke-width="2"/>
    <circle cx="32" cy="30" r="6" fill="#020617" stroke="#e5e7eb" stroke-width="2"/>
    <circle cx="28" cy="36" r="2" fill="#e5e7eb"/>
    <circle cx="24" cy="40" r="1.5" fill="#e5e7eb"/>
  </symbol>

  <!-- 54: Rounded tag -->
  <symbol id="errl_ui_tag_01" viewBox="0 0 64 64">
    <rect x="16" y="26" width="32" height="12" rx="6" fill="#0f172a" stroke="#d946ef" stroke-width="2"/>
  </symbol>

  <!-- 55: Small button -->
  <symbol id="errl_ui_button_01" viewBox="0 0 64 64">
    <rect x="20" y="28" width="24" height="8" rx="4" fill="#d946ef"/>
  </symbol>

  <!-- 56: Heart icon -->
  <symbol id="errl_ui_heart_01" viewBox="0 0 64 64">
    <path d="M32 42l-9-9a6 6 0 019-9 6 6 0 019 9z" fill="#d946ef"/>
  </symbol>

  <!-- 57: Warning pill -->
  <symbol id="errl_ui_warning_01" viewBox="0 0 64 64">
    <rect x="16" y="26" width="32" height="12" rx="6" fill="#d946ef"/>
    <rect x="30" y="27" width="4" height="6" fill="#0f172a"/>
    <rect x="30" y="35" width="4" height="2" fill="#0f172a"/>
  </symbol>

  <!-- 58: Tiny star badge -->
  <symbol id="errl_ui_badge_star_01" viewBox="0 0 64 64">
    <circle cx="32" cy="32" r="8" fill="#0f172a"/>
    <path d="M32 26l2 4 4 1-4 2-2 4-2-4-4-2 4-1z" fill="#d946ef"/>
  </symbol>

  <!-- 59: Play button -->
  <symbol id="errl_ui_play_01" viewBox="0 0 64 64">
    <circle cx="32" cy="32" r="10" fill="#d946ef"/>
    <polygon points="30,28 38,32 30,36" fill="#0f172a"/>
  </symbol>

  <!-- 60: Slider track -->
  <symbol id="errl_ui_slider_01" viewBox="0 0 64 64">
    <rect x="16" y="30" width="32" height="4" rx="2" fill="#1e293b"/>
    <circle cx="28" cy="32" r="4" fill="#d946ef"/>
  </symbol>

  <!-- 61: Party hat -->
  <symbol id="errl_hat_party_01" viewBox="0 0 64 64">
    <polygon points="28,18 36,18 32,34" fill="#d946ef"/>
    <circle cx="32" cy="16" r="2" fill="#f97316"/>
  </symbol>

  <!-- 62: Headband -->
  <symbol id="errl_hat_headband_01" viewBox="0 0 64 64">
    <path d="M24 30q8-6 16 0" fill="none" stroke="#d946ef" stroke-width="3" stroke-linecap="round"/>
  </symbol>

  <!-- 63: Tiny crown -->
  <symbol id="errl_hat_crown_01" viewBox="0 0 64 64">
    <path d="M24 26l4 6 4-8 4 8 4-6v8H24z" fill="#d946ef"/>
  </symbol>

  <!-- 64: Wizard hat -->
  <symbol id="errl_hat_wizard_01" viewBox="0 0 64 64">
    <polygon points="30,16 38,34 24,34" fill="#0f172a"/>
    <rect x="22" y="34" width="20" height="3" rx="1.5" fill="#1e293b"/>
    <circle cx="31" cy="22" r="1" fill="#d946ef"/>
  </symbol>

  <!-- 65: Glasses -->
  <symbol id="errl_accessory_glasses_01" viewBox="0 0 64 64">
    <circle cx="26" cy="30" r="4" fill="none" stroke="#e5e7eb" stroke-width="2"/>
    <circle cx="38" cy="30" r="4" fill="none" stroke="#e5e7eb" stroke-width="2"/>
    <line x1="30" y1="30" x2="34" y2="30" stroke="#e5e7eb" stroke-width="2"/>
  </symbol>

  <!-- 66: Big round glasses -->
  <symbol id="errl_accessory_glasses_02" viewBox="0 0 64 64">
    <circle cx="24" cy="30" r="6" fill="none" stroke="#d946ef" stroke-width="2"/>
    <circle cx="40" cy="30" r="6" fill="none" stroke="#d946ef" stroke-width="2"/>
  </symbol>

  <!-- 67: Scarf -->
  <symbol id="errl_accessory_scarf_01" viewBox="0 0 64 64">
    <path d="M24 34q4-4 8-4t8 4-4 6-8 2-4-8z" fill="#d946ef"/>
  </symbol>

  <!-- 68: Tiny bowtie -->
  <symbol id="errl_accessory_bowtie_01" viewBox="0 0 64 64">
    <polygon points="26,32 30,30 30,34" fill="#d946ef"/>
    <polygon points="38,32 34,30 34,34" fill="#d946ef"/>
    <circle cx="32" cy="32" r="2" fill="#0f172a"/>
  </symbol>

  <!-- 69: Head halo -->
  <symbol id="errl_accessory_halo_01" viewBox="0 0 64 64">
    <ellipse cx="32" cy="20" rx="10" ry="3" fill="none" stroke="#d946ef" stroke-width="2"/>
  </symbol>

  <!-- 70: Tiny backpack -->
  <symbol id="errl_accessory_backpack_01" viewBox="0 0 64 64">
    <rect x="26" y="26" width="12" height="14" rx="4" fill="#1e293b"/>
    <rect x="28" y="30" width="8" height="6" rx="2" fill="#0f172a"/>
  </symbol>

  <!-- 71: Standing frame -->
  <symbol id="errl_frame_stand_01" viewBox="0 0 64 64">
    <rect x="18" y="18" width="28" height="22" rx="2" fill="#020617"/>
    <rect x="20" y="20" width="24" height="18" fill="#0b1120"/>
    <rect x="26" y="42" width="12" height="4" fill="#1e293b"/>
  </symbol>

  <!-- 72: Stage arch -->
  <symbol id="errl_env_arch_01" viewBox="0 0 64 64">
    <path d="M16 40v-8q0-12 16-12t16 12v8z" fill="#0f172a"/>
  </symbol>

  <!-- 73: Doorway -->
  <symbol id="errl_env_door_01" viewBox="0 0 64 64">
    <rect x="22" y="18" width="20" height="26" rx="2" fill="#020617"/>
    <circle cx="40" cy="32" r="1.5" fill="#e5e7eb"/>
  </symbol>

  <!-- 74: Window -->
  <symbol id="errl_env_window_01" viewBox="0 0 64 64">
    <rect x="16" y="18" width="32" height="24" rx="2" fill="#0b1120"/>
    <line x1="32" y1="18" x2="32" y2="42" stroke="#1e293b" stroke-width="2"/>
    <line x1="16" y1="30" x2="48" y2="30" stroke="#1e293b" stroke-width="2"/>
  </symbol>

  <!-- 75: Shelf wall -->
  <symbol id="errl_env_shelf_wall_01" viewBox="0 0 64 64">
    <rect x="12" y="18" width="40" height="4" fill="#020617"/>
    <rect x="12" y="28" width="40" height="4" fill="#020617"/>
    <rect x="12" y="38" width="40" height="4" fill="#020617"/>
  </symbol>

  <!-- 76: Shrine base -->
  <symbol id="errl_env_shrine_base_01" viewBox="0 0 64 64">
    <rect x="18" y="34" width="28" height="10" rx="2" fill="#0f172a"/>
    <circle cx="32" cy="30" r="6" fill="#d946ef"/>
  </symbol>

  <!-- 77: Poster -->
  <symbol id="errl_env_poster_01" viewBox="0 0 64 64">
    <rect x="18" y="16" width="28" height="32" rx="2" fill="#020617"/>
    <rect x="20" y="18" width="24" height="10" fill="#0b1120"/>
    <rect x="20" y="30" width="24" height="12" fill="#111827"/>
  </symbol>

  <!-- 78: Ceiling lamp -->
  <symbol id="errl_env_lamp_ceiling_01" viewBox="0 0 64 64">
    <line x1="32" y1="10" x2="32" y2="18" stroke="#1e293b" stroke-width="2"/>
    <path d="M24 18h16l-4 8H28z" fill="#0f172a"/>
    <polygon points="24,26 40,26 32,40" fill="#d946ef" opacity="0.15"/>
  </symbol>

  <!-- 79: Floor lamp -->
  <symbol id="errl_env_lamp_floor_01" viewBox="0 0 64 64">
    <rect x="30" y="28" width="4" height="18" fill="#1e293b"/>
    <circle cx="32" cy="26" r="6" fill="#d946ef"/>
  </symbol>

  <!-- 80: Picture frame small -->
  <symbol id="errl_env_frame_small_01" viewBox="0 0 64 64">
    <rect x="22" y="22" width="20" height="20" rx="2" fill="#0f172a"/>
    <rect x="24" y="24" width="16" height="16" fill="#0b1120"/>
  </symbol>

  <!-- 81: Glow orb -->
  <symbol id="errl_fx_orb_01" viewBox="0 0 64 64">
    <circle cx="32" cy="32" r="8" fill="#d946ef" opacity="0.8"/>
    <circle cx="29" cy="29" r="3" fill="#f5d0fe" opacity="0.8"/>
  </symbol>

  <!-- 82: Ring orb -->
  <symbol id="errl_fx_ring_01" viewBox="0 0 64 64">
    <circle cx="32" cy="32" r="10" fill="none" stroke="#d946ef" stroke-width="3"/>
  </symbol>

  <!-- 83: Triple orbs -->
  <symbol id="errl_fx_orb_cluster_01" viewBox="0 0 64 64">
    <circle cx="26" cy="32" r="6" fill="#d946ef"/>
    <circle cx="36" cy="30" r="5" fill="#a855f7"/>
    <circle cx="34" cy="38" r="4" fill="#f5d0fe"/>
  </symbol>

  <!-- 84: Particle trail -->
  <symbol id="errl_fx_particles_01" viewBox="0 0 64 64">
    <circle cx="20" cy="24" r="1.5" fill="#d946ef"/>
    <circle cx="28" cy="28" r="2" fill="#a855f7"/>
    <circle cx="36" cy="32" r="2.5" fill="#f5d0fe"/>
    <circle cx="44" cy="36" r="1.5" fill="#d946ef"/>
  </symbol>

  <!-- 85: Vignette rectangle -->
  <symbol id="errl_fx_vignette_01" viewBox="0 0 64 64">
    <rect x="10" y="14" width="44" height="36" fill="#020617"/>
    <rect x="14" y="18" width="36" height="28" fill="#020617" opacity="0.3"/>
  </symbol>

  <!-- 86: Soft blob -->
  <symbol id="errl_fx_soft_blob_01" viewBox="0 0 64 64">
    <ellipse cx="32" cy="32" rx="14" ry="10" fill="#d946ef" opacity="0.6"/>
  </symbol>

  <!-- 87: Spiky burst -->
  <symbol id="errl_fx_burst_01" viewBox="0 0 64 64">
    <path d="M32 18l4 8 8-4-4 8 8 4-8 2 4 8-8-4-4 8-4-8-8 4 4-8-8-2 8-4-4-8 8 4z" fill="#d946ef"/>
  </symbol>

  <!-- 88: Ripple ring -->
  <symbol id="errl_fx_ripple_01" viewBox="0 0 64 64">
    <circle cx="32" cy="36" r="10" fill="none" stroke="#d946ef" stroke-width="2"/>
    <circle cx="32" cy="36" r="6" fill="none" stroke="#d946ef" stroke-width="1"/>
  </symbol>

  <!-- 89: Tiny triangle cluster -->
  <symbol id="errl_fx_triangles_01" viewBox="0 0 64 64">
    <polygon points="22,22 26,22 24,26" fill="#d946ef"/>
    <polygon points="32,28 36,28 34,32" fill="#a855f7"/>
    <polygon points="42,24 46,24 44,28" fill="#f5d0fe"/>
  </symbol>

  <!-- 90: Corner drips frame -->
  <symbol id="errl_fx_corner_drips_01" viewBox="0 0 64 64">
    <path d="M12 10q8 4 8 12" fill="none" stroke="#d946ef" stroke-width="3" stroke-linecap="round"/>
    <path d="M52 10q-8 4-8 12" fill="none" stroke="#a855f7" stroke-width="3" stroke-linecap="round"/>
  </symbol>

  <!-- 91: Tiny portal -->
  <symbol id="errl_mystery_portal_01" viewBox="0 0 64 64">
    <ellipse cx="32" cy="36" rx="12" ry="5" fill="#0f172a"/>
    <ellipse cx="32" cy="36" rx="8" ry="3" fill="#d946ef"/>
  </symbol>

  <!-- 92: Mystery glyph -->
  <symbol id="errl_mystery_glyph_01" viewBox="0 0 64 64">
    <circle cx="32" cy="30" r="10" fill="#0f172a" stroke="#d946ef" stroke-width="2"/>
    <path d="M32 22v16M26 30h12" stroke="#d946ef" stroke-width="2" stroke-linecap="round"/>
  </symbol>

  <!-- 93: Totem base -->
  <symbol id="errl_totem_base_01" viewBox="0 0 64 64">
    <rect x="20" y="34" width="24" height="10" rx="2" fill="#0f172a"/>
    <rect x="22" y="32" width="20" height="4" rx="2" fill="#1e293b"/>
  </symbol>

  <!-- 94: Little errl shrine icon -->
  <symbol id="errl_totem_shrine_01" viewBox="0 0 64 64">
    <rect x="22" y="24" width="20" height="20" rx="4" fill="#0f172a"/>
    <circle cx="32" cy="34" r="6" fill="#d946ef"/>
  </symbol>

  <!-- 95: Floating cube -->
  <symbol id="errl_misc_cube_01" viewBox="0 0 64 64">
    <rect x="24" y="24" width="16" height="16" fill="#1e293b"/>
    <path d="M24 24l8-4 16 0-8 4z" fill="#0f172a"/>
  </symbol>

  <!-- 96: Floating pyramid -->
  <symbol id="errl_misc_pyramid_01" viewBox="0 0 64 64">
    <polygon points="20,40 32,18 44,40" fill="#0f172a"/>
    <polygon points="32,18 44,40 32,34" fill="#1e293b"/>
  </symbol>

  <!-- 97: Sticker star -->
  <symbol id="errl_misc_sticker_star_01" viewBox="0 0 64 64">
    <path d="M32 18l4 8 8 2-6 6 2 8-8-4-8 4 2-8-6-6 8-2z" fill="#d946ef"/>
  </symbol>

  <!-- 98: Corner tape -->
  <symbol id="errl_misc_tape_corner_01" viewBox="0 0 64 64">
    <polygon points="18,18 26,14 30,18 22,22" fill="#e5e7eb"/>
  </symbol>

  <!-- 99: Small floor shadow -->
  <symbol id="errl_misc_shadow_01" viewBox="0 0 64 64">
    <ellipse cx="32" cy="40" rx="16" ry="4" fill="#020617" opacity="0.6"/>
  </symbol>

  <!-- 100: Tiny errlish blob buddy -->
  <symbol id="errl_misc_blob_friend_01" viewBox="0 0 64 64">
    <path d="M24 36q0-6 4-10t8-2 4 8-3 8-5 2-6-2-2-4z" fill="#d946ef"/>
    <circle cx="32" cy="32" r="1.5" fill="#0f172a"/>
    <circle cx="36" cy="32" r="1.5" fill="#0f172a"/>
  </symbol>

</svg>
