<svg xmlns="http://www.w3.org/2000/svg" viewBox="0 0 24 24" width="24" height="24" id="icon-qup2v2lom">keep it up

Rolling into vines, roots, moss, rocks, logs, and path rings. Same conventions: viewBox 0 0 64 64, simple flat shapes, data attributes.

errl_woods_vine_01 – dangling vine (prop/fx)
```svg
<svg xmlns="http://www.w3.org/2000/svg" viewBox="0 0 64 64" data-pack="errl_woods" data-cat="prop" data-name="errl_woods_vine_01">
  <g fill="none">
    <path d="M48 6 C40 10 38 16 40 24c2 8-2 12-8 12s-12 4-12 10" stroke="#166534" stroke-width="2.2" stroke-linecap="round" fill="none"/>
    <path d="M44 10 L48 14 L42 14 Z" fill="#22c55e"/>
    <path d="M36 26 L40 30 L34 30 Z" fill="#22c55e"/>
    <path d="M24 46 L28 50 L22 50 Z" fill="#4ade80"/>
  </g>
</svg>
```
errl_woods_vine_02 – ground creeper vine (prop)
```svg
<svg xmlns="http://www.w3.org/2000/svg" viewBox="0 0 64 64" data-pack="errl_woods" data-cat="prop" data-name="errl_woods_vine_02">
  <g fill="none">
    <path d="M8 46 C16 44 22 44 30 46c8 2 14 2 26-2" stroke="#166534" stroke-width="2" stroke-linecap="round" fill="none"/>
    <path d="M16 44 L18 48 L14 48 Z" fill="#22c55e"/>
    <path d="M28 45 L30 49 L26 49 Z" fill="#22c55e"/>
    <path d="M44 44 L46 48 L42 48 Z" fill="#4ade80"/>
  </g>
</svg>
```
errl_woods_roots_01 – exposed roots pattern (prop/env)
```svg
<svg xmlns="http://www.w3.org/2000/svg" viewBox="0 0 64 64" data-pack="errl_woods" data-cat="prop" data-name="errl_woods_roots_01">
  <g fill="none">
    <path d="M14 38 c6 2 10 6 10 10 M24 42 c4 2 6 5 6 8 M34 40 c8 3 12 6 12 10 M18 40 c-2 2-4 4-6 6" stroke="#78350f" stroke-width="1.6" stroke-linecap="round" fill="none"/>
  </g>
</svg>
```
errl_woods_moss_patch_01 – blob of moss (prop/env)
```svg
<svg xmlns="http://www.w3.org/2000/svg" viewBox="0 0 64 64" data-pack="errl_woods" data-cat="prop" data-name="errl_woods_moss_patch_01">
  <g fill="none">
    <path d="M16 44c2-5 6-7 12-7s10 2 12 7c-2 4-7 6-12 6s-10-2-12-6z" fill="#22c55e"/>
    <path d="M18 44c2-3 5-4 10-4s8 1 10 4" stroke="#4ade80" stroke-width="1.2" fill="none" stroke-linecap="round"/>
  </g>
</svg>
```
errl_woods_moss_trail_01 – moss along ground (prop/env)
```svg
<svg xmlns="http://www.w3.org/2000/svg" viewBox="0 0 64 64" data-pack="errl_woods" data-cat="prop" data-name="errl_woods_moss_trail_01">
  <g fill="none">
    <path d="M8 50c4-4 10-6 16-6s14 2 20 0 12-6 12-6" stroke="#22c55e" stroke-width="3" stroke-linecap="round" fill="none" opacity="0.9"/>
    <path d="M10 50c3-2 8-4 14-4s12 1.5 18 0 10-4 10-4" stroke="#4ade80" stroke-width="1.5" stroke-linecap="round" fill="none" opacity="0.9"/>
  </g>
</svg>
```
errl_woods_stone_01 – single rock (prop)
```svg
<svg xmlns="http://www.w3.org/2000/svg" viewBox="0 0 64 64" data-pack="errl_woods" data-cat="prop" data-name="errl_woods_stone_01">
  <g fill="none">
    <path d="M22 44 L30 40 38 42 40 48 26 50 Z" fill="#64748b"/>
    <path d="M28 42 L34 42 36 46 30 47 Z" fill="#94a3b8" opacity="0.9"/>
  </g>
</svg>
```
errl_woods_log_slice_01 – cross-section log slice (prop)
```svg
<svg xmlns="http://www.w3.org/2000/svg" viewBox="0 0 64 64" data-pack="errl_woods" data-cat="prop" data-name="errl_woods_log_slice_01">
  <g fill="none">
    <circle cx="32" cy="40" r="10" fill="#a16207"/>
    <circle cx="32" cy="40" r="7" fill="#92400e"/>
    <circle cx="32" cy="40" r="3.5" fill="#78350f" opacity="0.5"/>
  </g>
</svg>
```
errl_woods_mushroom_ring_01 – fairy ring circle outline (fx/env)
```svg
<svg xmlns="http://www.w3.org/2000/svg" viewBox="0 0 64 64" data-pack="errl_woods" data-cat="fx" data-name="errl_woods_mushroom_ring_01">
  <g fill="none">
    <circle cx="32" cy="40" r="14" stroke="#22c55e" stroke-width="1.4" stroke-dasharray="2 3" opacity="0.9"/>
    <circle cx="18" cy="40" r="1.2" fill="#ef4444"/>
    <circle cx="46" cy="40" r="1.2" fill="#fb7185"/>
    <circle cx="32" cy="26" r="1.2" fill="#ef4444"/>
    <circle cx="32" cy="54" r="1.2" fill="#fb7185"/>
  </g>
</svg>
```
errl_woods_grass_ring_01 – circular grass patch (env/prop)
```svg
<svg xmlns="http://www.w3.org/2000/svg" viewBox="0 0 64 64" data-pack="errl_woods" data-cat="env" data-name="errl_woods_grass_ring_01">
  <g fill="none">
    <circle cx="32" cy="42" r="14" fill="#22c55e" opacity="0.7"/>
    <circle cx="32" cy="42" r="9" fill="#166534" opacity="0.25"/>
  </g>
</svg>
```
errl_woods_ground_patch_01 – generic ground texture (env/prop)
```svg
<svg xmlns="http://www.w3.org/2000/svg" viewBox="0 0 64 64" data-pack="errl_woods" data-cat="env" data-name="errl_woods_ground_patch_01">
  <g fill="none">
    <ellipse cx="32" cy="48" rx="18" ry="5" fill="#a16207" opacity="0.9"/>
    <ellipse cx="24" cy="48" rx="5" ry="1.4" fill="#92400e"/>
    <ellipse cx="40" cy="48" rx="6" ry="1.6" fill="#92400e"/>
  </g>
</svg>
```
errl_woods_branches_01 – bare branch (prop)
```svg
<svg xmlns="http://www.w3.org/2000/svg" viewBox="0 0 64 64" data-pack="errl_woods" data-cat="prop" data-name="errl_woods_branches_01">
  <g fill="none">
    <path d="M12 44 C22 40 30 36 40 30 M28 36 L26 30 M34 34 L36 28 M20 40 L18 34" stroke="#78350f" stroke-width="2" stroke-linecap="round" fill="none"/>
  </g>
</svg>
```
errl_woods_branches_02 – leafy branch (prop)
```svg
<svg xmlns="http://www.w3.org/2000/svg" viewBox="0 0 64 64" data-pack="errl_woods" data-cat="prop" data-name="errl_woods_branches_02">
  <g fill="none">
    <path d="M12 44 C22 40 30 36 40 30" stroke="#92400e" stroke-width="2" stroke-linecap="round" fill="none"/>
    <path d="M26 32 L22 36 L27 37 Z" fill="#22c55e"/>
    <path d="M34 30 L30 34 L35 35 Z" fill="#22c55e"/>
    <path d="M20 38 L16 42 L21 43 Z" fill="#4ade80"/>
  </g>
</svg>
```
errl_woods_mushroom_glow_cluster_02 – dense glowy patch (fx/prop)
```svg
<svg xmlns="http://www.w3.org/2000/svg" viewBox="0 0 64 64" data-pack="errl_woods" data-cat="fx" data-name="errl_woods_mushroom_glow_cluster_02">
  <g fill="none">
    <path d="M18 36c0-3 3-5 6-5s6 2 6 5H18z" fill="#22d3ee"/>
    <rect x="22" y="36" width="3" height="7" rx="1.3" fill="#e0f2fe"/>
    <path d="M30 34c0-3 3-5 6-5s6 2 6 5H30z" fill="#a855f7"/>
    <rect x="34" y="34" width="3" height="7" rx="1.3" fill="#ede9fe"/>
    <circle cx="24" cy="52" r="8" fill="#22d3ee" opacity="0.12"/>
    <circle cx="40" cy="50" r="9" fill="#a855f7" opacity="0.1"/>
  </g>
</svg>
```
errl_woods_glow_spores_01 – ground spores (fx)
```svg
<svg xmlns="http://www.w3.org/2000/svg" viewBox="0 0 64 64" data-pack="errl_woods" data-cat="fx" data-name="errl_woods_glow_spores_01">
  <g fill="none">
    <circle cx="18" cy="46" r="1.2" fill="#22d3ee"/>
    <circle cx="24" cy="44" r="1" fill="#a855f7"/>
    <circle cx="30" cy="47" r="1.2" fill="#22d3ee"/>
    <circle cx="38" cy="45" r="1" fill="#a855f7"/>
    <circle cx="46" cy="46" r="1.2" fill="#22d3ee"/>
    <ellipse cx="32" cy="48" rx="18" ry="4" fill="#22d3ee" opacity="0.06"/>
  </g>
</svg>
```
Next up I can deliver: stones cluster alt, vine dangle alt, roots dense variant, plus the campsite set (campfire_02, tents, lanterns, signs). Want me to proceed straight into campsite props now?</svg>