<!-- 26) errl_woods_grass_tuft_02 – larger grass patch (prop/env) -->
<svg xmlns="http://www.w3.org/2000/svg" viewBox="0 0 64 64"
  data-pack="errl_woods" data-cat="prop" data-name="errl_woods_grass_tuft_02">
  <g fill="none">
    <path d="M12 46c3-7 6-7 9 0 3-9 7-9 11 0 3-8 7-8 11 0 3-7 6-7 9 0-3 6-13 10-29 10S15 52 12 46z"
      fill="#22c55e"/>
    <path d="M18 44c2-4 3-5 5-1 3-6 5-5 7 0 2-5 4-5 6 0 2-4 4-4 6 0"
      stroke="#4ade80" stroke-width="1.4" stroke-linecap="round" fill="none"/>
  </g>
</svg>
