<!-- 46) errl_woods_stone_02 – three rocks cluster (prop) -->
<svg xmlns="http://www.w3.org/2000/svg" viewBox="0 0 64 64"
  data-pack="errl_woods" data-cat="prop" data-name="errl_woods_stone_02">
  <g fill="none">
    <path d="M16 46 C18 41 21 39 24 39s5 2 6 5-2 5-6 5-6-2-8-5z"
      fill="#4b5563"/>
    <path d="M28 44 C29 40.5 31.5 39 34 39s5 1.5 6 4.5-2 4.5-6 4.5-6-1.5-6-4.5z"
      fill="#6b7280"/>
    <path d="M38 45 C39 41.5 41 40 43 40s3.5 1.3 4 3.5-1.2 3.5-4 3.5-4-1.2-5-3z"
      fill="#9ca3af"/>
  </g>
</svg>
