<!-- 51) errl_woods_campfire_01 – logs + little flame (prop/fx) -->
<svg xmlns="http://www.w3.org/2000/svg" viewBox="0 0 64 64"
  data-pack="errl_woods" data-cat="prop" data-name="errl_woods_campfire_01">
  <g fill="none">
    <!-- logs -->
    <path d="M22 46 L34 40 36 42 24 48 Z" fill="#78350f"/>
    <path d="M30 46 L42 40 44 42 32 48 Z" fill="#92400e"/>
    <!-- flame -->
    <path d="M32 30 C28 34 28 38 30 41s3 4 4 6c1-2 2-3 4-6s2-7-2-11-6-3-6-3z"
      fill="#f97316"/>
    <path d="M32 32 C30 35 30 38 31 40s2 3 2.5 4c0.8-1.2 1.6-2 2.1-4s0.4-4-1-6-3-2-3-2z"
      fill="#fde68a"/>
    <ellipse cx="32" cy="50" rx="10" ry="2.6" fill="#111827" opacity="0.4"/>
  </g>
</svg>
