<svg xmlns="http://www.w3.org/2000/svg" viewBox="0 0 24 24" width="24" height="24" id="icon-4q8w5ju26">continue

Continuing the Errl Woods pack with more env + plant assets.

---

### errl_woods_hill_02 – small foreground bump hill (env)

```svg
<svg xmlns="http://www.w3.org/2000/svg" viewBox="0 0 64 64" data-pack="errl_woods" data-cat="env" data-name="errl_woods_hill_02">
  <g fill="none">
    <path d="M10 48 C16 40 24 36 32 36s16 4 22 12v6H10z" fill="#166534"/>
    <path d="M14 48 C19 41 25 39 32 39s13 2 18 9v3H14z" fill="#22c55e" opacity="0.9"/>
  </g>
</svg>
```
---

### errl_woods_path_02 – stepping stones path (env/prop)

```svg
<svg xmlns="http://www.w3.org/2000/svg" viewBox="0 0 64 64" data-pack="errl_woods" data-cat="env" data-name="errl_woods_path_02">
  <g fill="none">
    <ellipse cx="22" cy="46" rx="6" ry="2.4" fill="#a16207" opacity="0.9"/>
    <ellipse cx="32" cy="40" rx="6.5" ry="2.6" fill="#92400e" opacity="0.9"/>
    <ellipse cx="42" cy="34" rx="7" ry="2.8" fill="#a16207" opacity="0.9"/>
    <ellipse cx="30" cy="52" rx="12" ry="3" fill="#166534" opacity="0.2"/>
  </g>
</svg>
```
---

### errl_woods_cliff_01 – small rock face (env)

```svg
<svg xmlns="http://www.w3.org/2000/svg" viewBox="0 0 64 64" data-pack="errl_woods" data-cat="env" data-name="errl_woods_cliff_01">
  <g fill="none">
    <path d="M16 18 L40 16 50 22 48 50 18 50 14 36 Z" fill="#475569"/>
    <path d="M24 22 L36 20 42 24 40 34 26 32 Z" fill="#64748b"/>
    <path d="M20 34 L30 32 34 38 24 40 Z" fill="#94a3b8" opacity="0.8"/>
  </g>
</svg>
```
---

### errl_woods_bridge_log_01 – log bridge (env/prop)

```svg
<svg xmlns="http://www.w3.org/2000/svg" viewBox="0 0 64 64" data-pack="errl_woods" data-cat="env" data-name="errl_woods_bridge_log_01">
  <g fill="none">
    <rect x="10" y="32" width="44" height="7" rx="3.5" fill="#78350f"/>
    <circle cx="14" cy="35.5" r="3.4" fill="#a16207"/>
    <circle cx="14" cy="35.5" r="1.7" fill="#92400e"/>
    <rect x="16" y="30" width="2" height="10" rx="1" fill="#166534"/>
    <rect x="46" y="30" width="2" height="10" rx="1" fill="#166534"/>
  </g>
</svg>
```
---

### errl_woods_arch_tree_01 – two trees forming arch (env)

```svg
<svg xmlns="http://www.w3.org/2000/svg" viewBox="0 0 64 64" data-pack="errl_woods" data-cat="env" data-name="errl_woods_arch_tree_01">
  <g fill="none">
    <rect x="14" y="32" width="5" height="16" rx="2" fill="#78350f"/>
    <rect x="45" y="32" width="5" height="16" rx="2" fill="#78350f"/>
    <path d="M16.5 30 C18 22 24 16 32 16s14 6 15.5 14" stroke="#166534" stroke-width="6" stroke-linecap="round" fill="none"/>
    <path d="M18 28 C19 22 25 18 32 18s13 4 14 10" stroke="#22c55e" stroke-width="4" stroke-linecap="round" fill="none"/>
  </g>
</svg>
```
---

### errl_woods_mushroom_02 – tall thin mushroom (prop)

```svg
<svg xmlns="http://www.w3.org/2000/svg" viewBox="0 0 64 64" data-pack="errl_woods" data-cat="prop" data-name="errl_woods_mushroom_02">
  <g fill="none">
    <path d="M26 28c0-5 4-9 9-9s9 4 9 9H26z" fill="#fb7185"/>
    <rect x="32" y="28" width="4" height="16" rx="1.8" fill="#fef3c7"/>
    <circle cx="31" cy="25" r="1.2" fill="#fff"/>
    <circle cx="37" cy="24" r="1.4" fill="#fff"/>
    <ellipse cx="34" cy="48" rx="7" ry="2.2" fill="#166534" opacity="0.25"/>
  </g>
</svg>
```
---

### errl_woods_fern_01 – curled fern (prop)

```svg
<svg xmlns="http://www.w3.org/2000/svg" viewBox="0 0 64 64" data-pack="errl_woods" data-cat="prop" data-name="errl_woods_fern_01">
  <g fill="none">
    <path d="M30 50 C30 40 36 36 40 34c3-1.5 5-3.5 5-6 0-3-2-5-5-5-2.5 0-4.5 1.2-6 3" stroke="#22c55e" stroke-width="2" fill="none" stroke-linecap="round"/>
    <path d="M32 44 L26 40 M34 40 L28 36 M36 36 L30 32" stroke="#4ade80" stroke-width="1.6" stroke-linecap="round"/>
  </g>
</svg>
```
---

### errl_woods_fern_02 – spread fern leaves (prop)

```svg
<svg xmlns="http://www.w3.org/2000/svg" viewBox="0 0 64 64" data-pack="errl_woods" data-cat="prop" data-name="errl_woods_fern_02">
  <g fill="none">
    <path d="M20 50 C26 42 32 40 40 40" stroke="#166534" stroke-width="2" stroke-linecap="round" fill="none"/>
    <path d="M24 46 L18 42 M27 44 L20 38 M30 43 L24 36 M33 42 L28 35 M36 42 L32 35" stroke="#22c55e" stroke-width="1.6" stroke-linecap="round"/>
  </g>
</svg>
```
---

### errl_woods_flower_01 – tiny wildflower (prop)

```svg
<svg xmlns="http://www.w3.org/2000/svg" viewBox="0 0 64 64" data-pack="errl_woods" data-cat="prop" data-name="errl_woods_flower_01">
  <g fill="none">
    <path d="M32 48 V36" stroke="#166534" stroke-width="1.5" stroke-linecap="round"/>
    <circle cx="32" cy="34" r="1.2" fill="#facc15"/>
    <circle cx="30.4" cy="33" r="1.2" fill="#fb7185"/>
    <circle cx="33.6" cy="33" r="1.2" fill="#22d3ee"/>
    <circle cx="31" cy="35.4" r="1.1" fill="#a855f7"/>
    <circle cx="33" cy="35.4" r="1.1" fill="#f97316"/>
  </g>
</svg>
```
---

### errl_woods_flower_02 – tall wildflower stalk (prop)

```svg
<svg xmlns="http://www.w3.org/2000/svg" viewBox="0 0 64 64" data-pack="errl_woods" data-cat="prop" data-name="errl_woods_flower_02">
  <g fill="none">
    <path d="M28 50 C29 44 30 40 32 36 C34 32 36 30 38 29" stroke="#166534" stroke-width="1.6" stroke-linecap="round" fill="none"/>
    <circle cx="39" cy="28" r="1.8" fill="#fb7185"/>
    <circle cx="37" cy="30.5" r="1.2" fill="#facc15"/>
    <circle cx="41" cy="30.5" r="1.2" fill="#22d3ee"/>
  </g>
</svg>
```
---

### errl_woods_leaf_01 – single leaf (prop/fx)

```svg
<svg xmlns="http://www.w3.org/2000/svg" viewBox="0 0 64 64" data-pack="errl_woods" data-cat="prop" data-name="errl_woods_leaf_01">
  <g fill="none">
    <path d="M18 40 C24 34 30 32 38 32 36 40 32 46 24 48 Z" fill="#22c55e"/>
    <path d="M20 44 C26 38 31 35 36 34" stroke="#166534" stroke-width="1.2" stroke-linecap="round" fill="none"/>
  </g>
</svg>
```
---

### errl_woods_leaf_02 – maple-ish leaf (prop/fx)

```svg
<svg xmlns="http://www.w3.org/2000/svg" viewBox="0 0 64 64" data-pack="errl_woods" data-cat="prop" data-name="errl_woods_leaf_02">
  <g fill="none">
    <path d="M32 20 L36 26 42 24 40 30 46 32 40 34 42 40 36 38 32 44 28 38 22 40 24 34 18 32 24 30 22 24 28 26 Z" fill="#22c55e"/>
    <path d="M32 22 L32 40" stroke="#166534" stroke-width="1.2" stroke-linecap="round" fill="none"/>
  </g>
</svg>
```
---

### errl_woods_leaf_pile_01 – small pile (prop)

```svg
<svg xmlns="http://www.w3.org/2000/svg" viewBox="0 0 64 64" data-pack="errl_woods" data-cat="prop" data-name="errl_woods_leaf_pile_01">
  <g fill="none">
    <path d="M18 46 C20 40 24 36 30 36s10 4 12 10H18z" fill="#22c55e"/>
    <path d="M22 44 C24 40 27 38 30 38s6 2 8 6" stroke="#166534" stroke-width="1.2" stroke-linecap="round" fill="none"/>
  </g>
</svg>
```
---

### errl_woods_leaf_pile_02 – bigger pile (prop, stand-in-able)

```svg
<svg xmlns="http://www.w3.org/2000/svg" viewBox="0 0 64 64" data-pack="errl_woods" data-cat="prop" data-name="errl_woods_leaf_pile_02">
  <g fill="none">
    <path d="M10 46 C13 38 20 32 32 32s19 6 22 14H10z" fill="#22c55e"/>
    <path d="M14 44 C18 37 24 34 32 34s14 3 18 10" stroke="#166534" stroke-width="1.4" stroke-linecap="round" fill="none"/>
  </g>
</svg>
```
---

### errl_woods_bush_01 – rounded bush (prop/env)

```svg
<svg xmlns="http://www.w3.org/2000/svg" viewBox="0 0 64 64" data-pack="errl_woods" data-cat="prop" data-name="errl_woods_bush_01">
  <g fill="none">
    <ellipse cx="24" cy="40" rx="8" ry="6" fill="#166534"/>
    <ellipse cx="34" cy="40" rx="9" ry="7" fill="#22c55e"/>
    <ellipse cx="44" cy="41" rx="7" ry="5.5" fill="#166534"/>
  </g>
</svg>
```
---

### errl_woods_bush_berry_01 – bush with berries (prop/env)

```svg
<svg xmlns="http://www.w3.org/2000/svg" viewBox="0 0 64 64" data-pack="errl_woods" data-cat="prop" data-name="errl_woods_bush_berry_01">
  <g fill="none">
    <ellipse cx="24" cy="40" rx="8" ry="6" fill="#166534"/>
    <ellipse cx="34" cy="40" rx="9" ry="7" fill="#22c55e"/>
    <ellipse cx="44" cy="41" rx="7" ry="5.5" fill="#166534"/>
    <circle cx="28" cy="39" r="1.2" fill="#fb7185"/>
    <circle cx="34" cy="42" r="1.2" fill="#f97316"/>
    <circle cx="40" cy="38" r="1.2" fill="#a855f7"/>
  </g>
</svg>
```
---

If this batch still lines up with your tint/motion systems, next I can hit vines/roots/moss/rocks and then move into campsite props.</svg>